solid OpenSCAD_Model
  facet normal -1 0 0
    outer loop
      vertex -66.5 10.735 0
      vertex -66.5 56.05 9.5
      vertex -66.5 56.05 0
    endloop
  endfacet
  facet normal -1 -0 0
    outer loop
      vertex -66.5 56.05 9.5
      vertex -66.5 10.735 0
      vertex -66.5 10.735 9.5
    endloop
  endfacet
  facet normal -0.442298 -0.896868 0
    outer loop
      vertex -64.6 7.4441 0
      vertex -64.1542 7.22425 9.5
      vertex -64.6 7.4441 9.5
    endloop
  endfacet
  facet normal -0.442298 -0.896868 -0
    outer loop
      vertex -64.1542 7.22425 9.5
      vertex -64.6 7.4441 0
      vertex -64.1542 7.22425 0
    endloop
  endfacet
  facet normal -0.442217 0.896908 0
    outer loop
      vertex -64.1542 59.5607 0
      vertex -64.6 59.3409 9.5
      vertex -64.1542 59.5607 9.5
    endloop
  endfacet
  facet normal -0.442217 0.896908 0
    outer loop
      vertex -64.6 59.3409 9.5
      vertex -64.1542 59.5607 0
      vertex -64.6 59.3409 0
    endloop
  endfacet
  facet normal -0.555545 -0.831487 0
    outer loop
      vertex -65.0133 7.72024 0
      vertex -64.6 7.4441 9.5
      vertex -65.0133 7.72024 9.5
    endloop
  endfacet
  facet normal -0.555545 -0.831487 -0
    outer loop
      vertex -64.6 7.4441 9.5
      vertex -65.0133 7.72024 0
      vertex -64.6 7.4441 0
    endloop
  endfacet
  facet normal 0 -1 0
    outer loop
      vertex -62.7 6.93499 9.5
      vertex -51.015 6.93499 2.565
      vertex 12.35 6.93499 9.5
    endloop
  endfacet
  facet normal 0 -1 0
    outer loop
      vertex -62.7 6.93499 0
      vertex -51.015 6.93499 2.565
      vertex -62.7 6.93499 9.5
    endloop
  endfacet
  facet normal 0 -1 -0
    outer loop
      vertex -51.015 6.93499 2.565
      vertex -62.7 6.93499 0
      vertex -51.015 6.93499 0
    endloop
  endfacet
  facet normal 0 -1 -0
    outer loop
      vertex 12.35 6.93499 9.5
      vertex -51.015 6.93499 2.565
      vertex 12.35 6.93499 2.565
    endloop
  endfacet
  facet normal 0 -1 0
    outer loop
      vertex 51.015 6.93499 2.565
      vertex 48.45 6.93499 9.5
      vertex 48.45 6.93499 2.565
    endloop
  endfacet
  facet normal 0 -1 0
    outer loop
      vertex 48.45 6.93499 9.5
      vertex 51.015 6.93499 2.565
      vertex 62.7 6.93499 9.5
    endloop
  endfacet
  facet normal 0 -1 0
    outer loop
      vertex 62.7 6.93499 0
      vertex 51.015 6.93499 2.565
      vertex 51.015 6.93499 0
    endloop
  endfacet
  facet normal 0 -1 0
    outer loop
      vertex 51.015 6.93499 2.565
      vertex 62.7 6.93499 0
      vertex 62.7 6.93499 9.5
    endloop
  endfacet
  facet normal 0.555628 0.831431 -0
    outer loop
      vertex 65.0133 59.0647 0
      vertex 64.6 59.3409 9.5
      vertex 65.0133 59.0647 9.5
    endloop
  endfacet
  facet normal 0.555628 0.831431 0
    outer loop
      vertex 64.6 59.3409 9.5
      vertex 65.0133 59.0647 0
      vertex 64.6 59.3409 0
    endloop
  endfacet
  facet normal 0.831431 0.555628 0
    outer loop
      vertex 65.9909 57.95 9.5
      vertex 65.7147 58.3633 0
      vertex 65.7147 58.3633 9.5
    endloop
  endfacet
  facet normal 0.831431 0.555628 0
    outer loop
      vertex 65.7147 58.3633 0
      vertex 65.9909 57.95 9.5
      vertex 65.9909 57.95 0
    endloop
  endfacet
  facet normal -0.831425 -0.555638 0
    outer loop
      vertex -65.7147 8.4217 0
      vertex -65.9909 8.83499 9.5
      vertex -65.9909 8.83499 0
    endloop
  endfacet
  facet normal -0.831425 -0.555638 0
    outer loop
      vertex -65.9909 8.83499 9.5
      vertex -65.7147 8.4217 0
      vertex -65.7147 8.4217 9.5
    endloop
  endfacet
  facet normal -0.659362 -0.751826 0
    outer loop
      vertex -65.387 8.04798 0
      vertex -65.0133 7.72024 9.5
      vertex -65.387 8.04798 9.5
    endloop
  endfacet
  facet normal -0.659362 -0.751826 -0
    outer loop
      vertex -65.0133 7.72024 9.5
      vertex -65.387 8.04798 0
      vertex -65.0133 7.72024 0
    endloop
  endfacet
  facet normal -0.065404 -0.997859 0
    outer loop
      vertex -63.196 6.9675 0
      vertex -62.7 6.93499 9.5
      vertex -63.196 6.9675 9.5
    endloop
  endfacet
  facet normal -0.065404 -0.997859 -0
    outer loop
      vertex -62.7 6.93499 9.5
      vertex -63.196 6.9675 0
      vertex -62.7 6.93499 0
    endloop
  endfacet
  facet normal 0.751866 0.659316 0
    outer loop
      vertex 65.7147 58.3633 9.5
      vertex 65.387 58.737 0
      vertex 65.387 58.737 9.5
    endloop
  endfacet
  facet normal 0.751866 0.659316 0
    outer loop
      vertex 65.387 58.737 0
      vertex 65.7147 58.3633 9.5
      vertex 65.7147 58.3633 0
    endloop
  endfacet
  facet normal 0.980774 0.195149 0
    outer loop
      vertex 66.4675 56.546 9.5
      vertex 66.3705 57.0335 0
      vertex 66.3705 57.0335 9.5
    endloop
  endfacet
  facet normal 0.980774 0.195149 0
    outer loop
      vertex 66.3705 57.0335 0
      vertex 66.4675 56.546 9.5
      vertex 66.4675 56.546 0
    endloop
  endfacet
  facet normal -0.980776 -0.195137 0
    outer loop
      vertex -66.3705 9.75147 0
      vertex -66.4675 10.239 9.5
      vertex -66.4675 10.239 0
    endloop
  endfacet
  facet normal -0.980776 -0.195137 0
    outer loop
      vertex -66.4675 10.239 9.5
      vertex -66.3705 9.75147 0
      vertex -66.3705 9.75147 9.5
    endloop
  endfacet
  facet normal -0.321419 -0.946937 0
    outer loop
      vertex -64.1542 7.22425 0
      vertex -63.6835 7.06448 9.5
      vertex -64.1542 7.22425 9.5
    endloop
  endfacet
  facet normal -0.321419 -0.946937 -0
    outer loop
      vertex -63.6835 7.06448 9.5
      vertex -64.1542 7.22425 0
      vertex -63.6835 7.06448 0
    endloop
  endfacet
  facet normal -0.751883 -0.659296 0
    outer loop
      vertex -65.387 8.04798 0
      vertex -65.7147 8.4217 9.5
      vertex -65.7147 8.4217 0
    endloop
  endfacet
  facet normal -0.751883 -0.659296 0
    outer loop
      vertex -65.7147 8.4217 9.5
      vertex -65.387 8.04798 0
      vertex -65.387 8.04798 9.5
    endloop
  endfacet
  facet normal 1 -0 0
    outer loop
      vertex 66.5 10.735 9.5
      vertex 66.5 56.05 0
      vertex 66.5 56.05 9.5
    endloop
  endfacet
  facet normal 1 0 0
    outer loop
      vertex 66.5 56.05 0
      vertex 66.5 10.735 9.5
      vertex 66.5 10.735 0
    endloop
  endfacet
  facet normal 0.065384 0.99786 -0
    outer loop
      vertex 63.196 59.8175 0
      vertex 62.7 59.85 9.5
      vertex 63.196 59.8175 9.5
    endloop
  endfacet
  facet normal 0.065384 0.99786 0
    outer loop
      vertex 62.7 59.85 9.5
      vertex 63.196 59.8175 0
      vertex 62.7 59.85 0
    endloop
  endfacet
  facet normal -0.99786 -0.065384 0
    outer loop
      vertex -66.4675 10.239 0
      vertex -66.5 10.735 9.5
      vertex -66.5 10.735 0
    endloop
  endfacet
  facet normal -0.99786 -0.065384 0
    outer loop
      vertex -66.5 10.735 9.5
      vertex -66.4675 10.239 0
      vertex -66.4675 10.239 9.5
    endloop
  endfacet
  facet normal 0 1 -0
    outer loop
      vertex 62.7 59.85 0
      vertex -62.7 59.85 9.5
      vertex 62.7 59.85 9.5
    endloop
  endfacet
  facet normal 0 1 0
    outer loop
      vertex -62.7 59.85 9.5
      vertex 62.7 59.85 0
      vertex -62.7 59.85 0
    endloop
  endfacet
  facet normal -0.19511 -0.980781 0
    outer loop
      vertex -63.6835 7.06448 0
      vertex -63.196 6.9675 9.5
      vertex -63.6835 7.06448 9.5
    endloop
  endfacet
  facet normal -0.19511 -0.980781 -0
    outer loop
      vertex -63.196 6.9675 9.5
      vertex -63.6835 7.06448 0
      vertex -63.196 6.9675 0
    endloop
  endfacet
  facet normal 0.831425 -0.555638 0
    outer loop
      vertex 65.7147 8.4217 9.5
      vertex 65.9909 8.83499 0
      vertex 65.9909 8.83499 9.5
    endloop
  endfacet
  facet normal 0.831425 -0.555638 0
    outer loop
      vertex 65.9909 8.83499 0
      vertex 65.7147 8.4217 9.5
      vertex 65.7147 8.4217 0
    endloop
  endfacet
  facet normal 0.659362 -0.751826 0
    outer loop
      vertex 65.0133 7.72024 0
      vertex 65.387 8.04798 9.5
      vertex 65.0133 7.72024 9.5
    endloop
  endfacet
  facet normal 0.659362 -0.751826 0
    outer loop
      vertex 65.387 8.04798 9.5
      vertex 65.0133 7.72024 0
      vertex 65.387 8.04798 0
    endloop
  endfacet
  facet normal -0.896908 -0.442217 0
    outer loop
      vertex -65.9909 8.83499 0
      vertex -66.2107 9.28079 9.5
      vertex -66.2107 9.28079 0
    endloop
  endfacet
  facet normal -0.896908 -0.442217 0
    outer loop
      vertex -66.2107 9.28079 9.5
      vertex -65.9909 8.83499 0
      vertex -65.9909 8.83499 9.5
    endloop
  endfacet
  facet normal 0.896908 0.442217 0
    outer loop
      vertex 66.2107 57.5042 9.5
      vertex 65.9909 57.95 0
      vertex 65.9909 57.95 9.5
    endloop
  endfacet
  facet normal 0.896908 0.442217 0
    outer loop
      vertex 65.9909 57.95 0
      vertex 66.2107 57.5042 9.5
      vertex 66.2107 57.5042 0
    endloop
  endfacet
  facet normal 0.442217 0.896908 -0
    outer loop
      vertex 64.6 59.3409 0
      vertex 64.1542 59.5607 9.5
      vertex 64.6 59.3409 9.5
    endloop
  endfacet
  facet normal 0.442217 0.896908 0
    outer loop
      vertex 64.1542 59.5607 9.5
      vertex 64.6 59.3409 0
      vertex 64.1542 59.5607 0
    endloop
  endfacet
  facet normal -0.321474 0.946919 0
    outer loop
      vertex -63.6835 59.7205 0
      vertex -64.1542 59.5607 9.5
      vertex -63.6835 59.7205 9.5
    endloop
  endfacet
  facet normal -0.321474 0.946919 0
    outer loop
      vertex -64.1542 59.5607 9.5
      vertex -63.6835 59.7205 0
      vertex -64.1542 59.5607 0
    endloop
  endfacet
  facet normal -0.751866 0.659316 0
    outer loop
      vertex -65.7147 58.3633 0
      vertex -65.387 58.737 9.5
      vertex -65.387 58.737 0
    endloop
  endfacet
  facet normal -0.751866 0.659316 0
    outer loop
      vertex -65.387 58.737 9.5
      vertex -65.7147 58.3633 0
      vertex -65.7147 58.3633 9.5
    endloop
  endfacet
  facet normal 0.751883 -0.659296 0
    outer loop
      vertex 65.387 8.04798 9.5
      vertex 65.7147 8.4217 0
      vertex 65.7147 8.4217 9.5
    endloop
  endfacet
  facet normal 0.751883 -0.659296 0
    outer loop
      vertex 65.7147 8.4217 0
      vertex 65.387 8.04798 9.5
      vertex 65.387 8.04798 0
    endloop
  endfacet
  facet normal -0.896908 0.442217 0
    outer loop
      vertex -66.2107 57.5042 0
      vertex -65.9909 57.95 9.5
      vertex -65.9909 57.95 0
    endloop
  endfacet
  facet normal -0.896908 0.442217 0
    outer loop
      vertex -65.9909 57.95 9.5
      vertex -66.2107 57.5042 0
      vertex -66.2107 57.5042 9.5
    endloop
  endfacet
  facet normal -0.065384 0.99786 0
    outer loop
      vertex -62.7 59.85 0
      vertex -63.196 59.8175 9.5
      vertex -62.7 59.85 9.5
    endloop
  endfacet
  facet normal -0.065384 0.99786 0
    outer loop
      vertex -63.196 59.8175 9.5
      vertex -62.7 59.85 0
      vertex -63.196 59.8175 0
    endloop
  endfacet
  facet normal 0.99786 0.065384 0
    outer loop
      vertex 66.5 56.05 9.5
      vertex 66.4675 56.546 0
      vertex 66.4675 56.546 9.5
    endloop
  endfacet
  facet normal 0.99786 0.065384 0
    outer loop
      vertex 66.4675 56.546 0
      vertex 66.5 56.05 9.5
      vertex 66.5 56.05 0
    endloop
  endfacet
  facet normal 0.321419 -0.946937 0
    outer loop
      vertex 63.6835 7.06448 0
      vertex 64.1542 7.22425 9.5
      vertex 63.6835 7.06448 9.5
    endloop
  endfacet
  facet normal 0.321419 -0.946937 0
    outer loop
      vertex 64.1542 7.22425 9.5
      vertex 63.6835 7.06448 0
      vertex 64.1542 7.22425 0
    endloop
  endfacet
  facet normal -0.659316 0.751866 0
    outer loop
      vertex -65.0133 59.0647 0
      vertex -65.387 58.737 9.5
      vertex -65.0133 59.0647 9.5
    endloop
  endfacet
  facet normal -0.659316 0.751866 0
    outer loop
      vertex -65.387 58.737 9.5
      vertex -65.0133 59.0647 0
      vertex -65.387 58.737 0
    endloop
  endfacet
  facet normal -0.980774 0.195149 0
    outer loop
      vertex -66.4675 56.546 0
      vertex -66.3705 57.0335 9.5
      vertex -66.3705 57.0335 0
    endloop
  endfacet
  facet normal -0.980774 0.195149 0
    outer loop
      vertex -66.3705 57.0335 9.5
      vertex -66.4675 56.546 0
      vertex -66.4675 56.546 9.5
    endloop
  endfacet
  facet normal 0.980776 -0.195137 0
    outer loop
      vertex 66.3705 9.75147 9.5
      vertex 66.4675 10.239 0
      vertex 66.4675 10.239 9.5
    endloop
  endfacet
  facet normal 0.980776 -0.195137 0
    outer loop
      vertex 66.4675 10.239 0
      vertex 66.3705 9.75147 9.5
      vertex 66.3705 9.75147 0
    endloop
  endfacet
  facet normal -0.555628 0.831431 0
    outer loop
      vertex -64.6 59.3409 0
      vertex -65.0133 59.0647 9.5
      vertex -64.6 59.3409 9.5
    endloop
  endfacet
  facet normal -0.555628 0.831431 0
    outer loop
      vertex -65.0133 59.0647 9.5
      vertex -64.6 59.3409 0
      vertex -65.0133 59.0647 0
    endloop
  endfacet
  facet normal 0.195149 0.980774 -0
    outer loop
      vertex 63.6835 59.7205 0
      vertex 63.196 59.8175 9.5
      vertex 63.6835 59.7205 9.5
    endloop
  endfacet
  facet normal 0.195149 0.980774 0
    outer loop
      vertex 63.196 59.8175 9.5
      vertex 63.6835 59.7205 0
      vertex 63.196 59.8175 0
    endloop
  endfacet
  facet normal 0.19511 -0.980781 0
    outer loop
      vertex 63.196 6.9675 0
      vertex 63.6835 7.06448 9.5
      vertex 63.196 6.9675 9.5
    endloop
  endfacet
  facet normal 0.19511 -0.980781 0
    outer loop
      vertex 63.6835 7.06448 9.5
      vertex 63.196 6.9675 0
      vertex 63.6835 7.06448 0
    endloop
  endfacet
  facet normal 0 0 -1
    outer loop
      vertex 51.015 0 0
      vertex 48.45 6.555 0
      vertex 51.015 6.93499 0
    endloop
  endfacet
  facet normal 0 0 -1
    outer loop
      vertex 51.015 0 0
      vertex 12.35 6.555 0
      vertex 48.45 6.555 0
    endloop
  endfacet
  facet normal 0 0 -1
    outer loop
      vertex -51.015 6.93499 0
      vertex 12.35 6.935 0
      vertex 12.35 6.555 0
    endloop
  endfacet
  facet normal -0 0 -1
    outer loop
      vertex 12.35 6.935 0
      vertex -51.015 6.93499 0
      vertex 12.35 7.6 0
    endloop
  endfacet
  facet normal -0 0 -1
    outer loop
      vertex 12.35 7.6 0
      vertex -51.015 6.93499 0
      vertex 12.35 9.11999 0
    endloop
  endfacet
  facet normal -0 0 -1
    outer loop
      vertex 12.35 9.11999 0
      vertex -51.015 6.93499 0
      vertex 12.35 9.12 0
    endloop
  endfacet
  facet normal 0 0 -1
    outer loop
      vertex -51.015 6.93499 0
      vertex 12.35 6.555 0
      vertex -51.015 0 0
    endloop
  endfacet
  facet normal 0 0 -1
    outer loop
      vertex -51.015 0 0
      vertex 12.35 6.555 0
      vertex 51.015 0 0
    endloop
  endfacet
  facet normal 0 0 -1
    outer loop
      vertex 62.7 6.93499 0
      vertex 66.5 10.735 0
      vertex 66.4675 10.239 0
    endloop
  endfacet
  facet normal 0 0 -1
    outer loop
      vertex 66.5 10.735 0
      vertex 48.45 11.875 0
      vertex 66.5 56.05 0
    endloop
  endfacet
  facet normal 0 0 -1
    outer loop
      vertex 62.7 6.93499 0
      vertex 66.4675 10.239 0
      vertex 66.3705 9.75147 0
    endloop
  endfacet
  facet normal 0 -0 -1
    outer loop
      vertex 62.7 59.85 0
      vertex 66.5 56.05 0
      vertex 48.45 11.875 0
    endloop
  endfacet
  facet normal 0 0 -1
    outer loop
      vertex 62.7 6.93499 0
      vertex 66.3705 9.75147 0
      vertex 66.2107 9.28079 0
    endloop
  endfacet
  facet normal 0 0 -1
    outer loop
      vertex 66.5 56.05 0
      vertex 62.7 59.85 0
      vertex 66.4675 56.546 0
    endloop
  endfacet
  facet normal 0 0 -1
    outer loop
      vertex 62.7 6.93499 0
      vertex 66.2107 9.28079 0
      vertex 65.9909 8.83499 0
    endloop
  endfacet
  facet normal 0 0 -1
    outer loop
      vertex 66.4675 56.546 0
      vertex 62.7 59.85 0
      vertex 66.3705 57.0335 0
    endloop
  endfacet
  facet normal 0 0 -1
    outer loop
      vertex 62.7 6.93499 0
      vertex 65.9909 8.83499 0
      vertex 65.7147 8.4217 0
    endloop
  endfacet
  facet normal 0 0 -1
    outer loop
      vertex 66.3705 57.0335 0
      vertex 62.7 59.85 0
      vertex 66.2107 57.5042 0
    endloop
  endfacet
  facet normal 0 0 -1
    outer loop
      vertex 62.7 6.93499 0
      vertex 65.7147 8.4217 0
      vertex 65.387 8.04798 0
    endloop
  endfacet
  facet normal 0 0 -1
    outer loop
      vertex 66.2107 57.5042 0
      vertex 62.7 59.85 0
      vertex 65.9909 57.95 0
    endloop
  endfacet
  facet normal 0 0 -1
    outer loop
      vertex 62.7 6.93499 0
      vertex 65.387 8.04798 0
      vertex 65.0133 7.72024 0
    endloop
  endfacet
  facet normal 0 0 -1
    outer loop
      vertex 65.9909 57.95 0
      vertex 62.7 59.85 0
      vertex 65.7147 58.3633 0
    endloop
  endfacet
  facet normal 0 0 -1
    outer loop
      vertex 62.7 6.93499 0
      vertex 65.0133 7.72024 0
      vertex 64.6 7.4441 0
    endloop
  endfacet
  facet normal 0 0 -1
    outer loop
      vertex 65.7147 58.3633 0
      vertex 62.7 59.85 0
      vertex 65.387 58.737 0
    endloop
  endfacet
  facet normal 0 0 -1
    outer loop
      vertex 62.7 6.93499 0
      vertex 64.6 7.4441 0
      vertex 64.1542 7.22425 0
    endloop
  endfacet
  facet normal 0 0 -1
    outer loop
      vertex 65.387 58.737 0
      vertex 62.7 59.85 0
      vertex 65.0133 59.0647 0
    endloop
  endfacet
  facet normal 0 0 -1
    outer loop
      vertex 62.7 6.93499 0
      vertex 64.1542 7.22425 0
      vertex 63.6835 7.06448 0
    endloop
  endfacet
  facet normal 0 0 -1
    outer loop
      vertex 65.0133 59.0647 0
      vertex 62.7 59.85 0
      vertex 64.6 59.3409 0
    endloop
  endfacet
  facet normal 0 0 -1
    outer loop
      vertex 62.7 6.93499 0
      vertex 63.6835 7.06448 0
      vertex 63.196 6.9675 0
    endloop
  endfacet
  facet normal 0 0 -1
    outer loop
      vertex 64.6 59.3409 0
      vertex 62.7 59.85 0
      vertex 64.1542 59.5607 0
    endloop
  endfacet
  facet normal -0 0 -1
    outer loop
      vertex 66.5 10.735 0
      vertex 62.7 6.93499 0
      vertex 48.45 11.875 0
    endloop
  endfacet
  facet normal 0 0 -1
    outer loop
      vertex 64.1542 59.5607 0
      vertex 62.7 59.85 0
      vertex 63.6835 59.7205 0
    endloop
  endfacet
  facet normal 0 0 -1
    outer loop
      vertex 48.45 11.875 0
      vertex 62.7 6.93499 0
      vertex 51.015 6.93499 0
    endloop
  endfacet
  facet normal 0 0 -1
    outer loop
      vertex 48.45 11.875 0
      vertex 51.015 6.93499 0
      vertex 48.45 6.555 0
    endloop
  endfacet
  facet normal 0 0 -1
    outer loop
      vertex 63.6835 59.7205 0
      vertex 62.7 59.85 0
      vertex 63.196 59.8175 0
    endloop
  endfacet
  facet normal 0 0 -1
    outer loop
      vertex 12.35 11.875 0
      vertex 62.7 59.85 0
      vertex 48.45 11.875 0
    endloop
  endfacet
  facet normal -0 0 -1
    outer loop
      vertex 12.35 9.12 0
      vertex -51.015 6.93499 0
      vertex 12.35 11.875 0
    endloop
  endfacet
  facet normal 0 0 -1
    outer loop
      vertex -62.7 59.85 0
      vertex 12.35 11.875 0
      vertex -51.015 6.93499 0
    endloop
  endfacet
  facet normal 0 0 -1
    outer loop
      vertex -66.5 10.735 0
      vertex -51.015 6.93499 0
      vertex -62.7 6.93499 0
    endloop
  endfacet
  facet normal 0 0 -1
    outer loop
      vertex 12.35 11.875 0
      vertex -62.7 59.85 0
      vertex 62.7 59.85 0
    endloop
  endfacet
  facet normal 0 0 -1
    outer loop
      vertex -66.5 10.735 0
      vertex -62.7 6.93499 0
      vertex -63.196 6.9675 0
    endloop
  endfacet
  facet normal 0 0 -1
    outer loop
      vertex -66.5 56.05 0
      vertex -51.015 6.93499 0
      vertex -66.5 10.735 0
    endloop
  endfacet
  facet normal 0 0 -1
    outer loop
      vertex -66.5 10.735 0
      vertex -63.196 6.9675 0
      vertex -63.6835 7.06448 0
    endloop
  endfacet
  facet normal 0 0 -1
    outer loop
      vertex -51.015 6.93499 0
      vertex -66.5 56.05 0
      vertex -62.7 59.85 0
    endloop
  endfacet
  facet normal 0 0 -1
    outer loop
      vertex -66.5 10.735 0
      vertex -63.6835 7.06448 0
      vertex -64.1542 7.22425 0
    endloop
  endfacet
  facet normal 0 0 -1
    outer loop
      vertex -62.7 59.85 0
      vertex -66.5 56.05 0
      vertex -63.196 59.8175 0
    endloop
  endfacet
  facet normal 0 0 -1
    outer loop
      vertex -66.5 10.735 0
      vertex -64.1542 7.22425 0
      vertex -64.6 7.4441 0
    endloop
  endfacet
  facet normal 0 0 -1
    outer loop
      vertex -63.196 59.8175 0
      vertex -66.5 56.05 0
      vertex -63.6835 59.7205 0
    endloop
  endfacet
  facet normal 0 0 -1
    outer loop
      vertex -66.5 10.735 0
      vertex -64.6 7.4441 0
      vertex -65.0133 7.72024 0
    endloop
  endfacet
  facet normal 0 0 -1
    outer loop
      vertex -63.6835 59.7205 0
      vertex -66.5 56.05 0
      vertex -64.1542 59.5607 0
    endloop
  endfacet
  facet normal 0 0 -1
    outer loop
      vertex -66.5 10.735 0
      vertex -65.0133 7.72024 0
      vertex -65.387 8.04798 0
    endloop
  endfacet
  facet normal 0 0 -1
    outer loop
      vertex -64.1542 59.5607 0
      vertex -66.5 56.05 0
      vertex -64.6 59.3409 0
    endloop
  endfacet
  facet normal 0 0 -1
    outer loop
      vertex -66.5 10.735 0
      vertex -65.387 8.04798 0
      vertex -65.7147 8.4217 0
    endloop
  endfacet
  facet normal 0 0 -1
    outer loop
      vertex -64.6 59.3409 0
      vertex -66.5 56.05 0
      vertex -65.0133 59.0647 0
    endloop
  endfacet
  facet normal 0 0 -1
    outer loop
      vertex -66.5 10.735 0
      vertex -65.7147 8.4217 0
      vertex -65.9909 8.83499 0
    endloop
  endfacet
  facet normal 0 0 -1
    outer loop
      vertex -65.0133 59.0647 0
      vertex -66.5 56.05 0
      vertex -65.387 58.737 0
    endloop
  endfacet
  facet normal 0 0 -1
    outer loop
      vertex -66.5 10.735 0
      vertex -65.9909 8.83499 0
      vertex -66.2107 9.28079 0
    endloop
  endfacet
  facet normal 0 0 -1
    outer loop
      vertex -65.387 58.737 0
      vertex -66.5 56.05 0
      vertex -65.7147 58.3633 0
    endloop
  endfacet
  facet normal 0 0 -1
    outer loop
      vertex -66.5 10.735 0
      vertex -66.2107 9.28079 0
      vertex -66.3705 9.75147 0
    endloop
  endfacet
  facet normal 0 0 -1
    outer loop
      vertex -65.7147 58.3633 0
      vertex -66.5 56.05 0
      vertex -65.9909 57.95 0
    endloop
  endfacet
  facet normal 0 0 -1
    outer loop
      vertex -66.5 10.735 0
      vertex -66.3705 9.75147 0
      vertex -66.4675 10.239 0
    endloop
  endfacet
  facet normal 0 0 -1
    outer loop
      vertex -65.9909 57.95 0
      vertex -66.5 56.05 0
      vertex -66.2107 57.5042 0
    endloop
  endfacet
  facet normal 0 0 -1
    outer loop
      vertex -66.2107 57.5042 0
      vertex -66.5 56.05 0
      vertex -66.3705 57.0335 0
    endloop
  endfacet
  facet normal 0 0 -1
    outer loop
      vertex -66.3705 57.0335 0
      vertex -66.5 56.05 0
      vertex -66.4675 56.546 0
    endloop
  endfacet
  facet normal 0 0 -1
    outer loop
      vertex 12.35 7.6 0
      vertex 45.6 9.11999 0
      vertex 45.6 7.6 0
    endloop
  endfacet
  facet normal -0 0 -1
    outer loop
      vertex 45.6 9.11999 0
      vertex 12.35 7.6 0
      vertex 12.35 9.11999 0
    endloop
  endfacet
  facet normal 0.065404 -0.997859 0
    outer loop
      vertex 62.7 6.93499 0
      vertex 63.196 6.9675 9.5
      vertex 62.7 6.93499 9.5
    endloop
  endfacet
  facet normal 0.065404 -0.997859 0
    outer loop
      vertex 63.196 6.9675 9.5
      vertex 62.7 6.93499 0
      vertex 63.196 6.9675 0
    endloop
  endfacet
  facet normal 0.946919 0.321474 0
    outer loop
      vertex 66.3705 57.0335 9.5
      vertex 66.2107 57.5042 0
      vertex 66.2107 57.5042 9.5
    endloop
  endfacet
  facet normal 0.946919 0.321474 0
    outer loop
      vertex 66.2107 57.5042 0
      vertex 66.3705 57.0335 9.5
      vertex 66.3705 57.0335 0
    endloop
  endfacet
  facet normal -0.195149 0.980774 0
    outer loop
      vertex -63.196 59.8175 0
      vertex -63.6835 59.7205 9.5
      vertex -63.196 59.8175 9.5
    endloop
  endfacet
  facet normal -0.195149 0.980774 0
    outer loop
      vertex -63.6835 59.7205 9.5
      vertex -63.196 59.8175 0
      vertex -63.6835 59.7205 0
    endloop
  endfacet
  facet normal -0.831431 0.555628 0
    outer loop
      vertex -65.9909 57.95 0
      vertex -65.7147 58.3633 9.5
      vertex -65.7147 58.3633 0
    endloop
  endfacet
  facet normal -0.831431 0.555628 0
    outer loop
      vertex -65.7147 58.3633 9.5
      vertex -65.9909 57.95 0
      vertex -65.9909 57.95 9.5
    endloop
  endfacet
  facet normal -0.946914 -0.321486 0
    outer loop
      vertex -66.2107 9.28079 0
      vertex -66.3705 9.75147 9.5
      vertex -66.3705 9.75147 0
    endloop
  endfacet
  facet normal -0.946914 -0.321486 0
    outer loop
      vertex -66.3705 9.75147 9.5
      vertex -66.2107 9.28079 0
      vertex -66.2107 9.28079 9.5
    endloop
  endfacet
  facet normal 0.321474 0.946919 -0
    outer loop
      vertex 64.1542 59.5607 0
      vertex 63.6835 59.7205 9.5
      vertex 64.1542 59.5607 9.5
    endloop
  endfacet
  facet normal 0.321474 0.946919 0
    outer loop
      vertex 63.6835 59.7205 9.5
      vertex 64.1542 59.5607 0
      vertex 63.6835 59.7205 0
    endloop
  endfacet
  facet normal 0.442298 -0.896868 0
    outer loop
      vertex 64.1542 7.22425 0
      vertex 64.6 7.4441 9.5
      vertex 64.1542 7.22425 9.5
    endloop
  endfacet
  facet normal 0.442298 -0.896868 0
    outer loop
      vertex 64.6 7.4441 9.5
      vertex 64.1542 7.22425 0
      vertex 64.6 7.4441 0
    endloop
  endfacet
  facet normal 0 0 1
    outer loop
      vertex 62.7 59.85 9.5
      vertex 66.5 56.05 9.5
      vertex 66.4675 56.546 9.5
    endloop
  endfacet
  facet normal 0 0 1
    outer loop
      vertex 66.5 56.05 9.5
      vertex 48.45 11.875 9.5
      vertex 66.5 10.735 9.5
    endloop
  endfacet
  facet normal 0 0 1
    outer loop
      vertex 62.7 59.85 9.5
      vertex 66.4675 56.546 9.5
      vertex 66.3705 57.0335 9.5
    endloop
  endfacet
  facet normal 0 -0 1
    outer loop
      vertex 62.7 6.93499 9.5
      vertex 66.5 10.735 9.5
      vertex 48.45 11.875 9.5
    endloop
  endfacet
  facet normal 0 0 1
    outer loop
      vertex 62.7 59.85 9.5
      vertex 66.3705 57.0335 9.5
      vertex 66.2107 57.5042 9.5
    endloop
  endfacet
  facet normal 0 0 1
    outer loop
      vertex 66.5 10.735 9.5
      vertex 62.7 6.93499 9.5
      vertex 66.4675 10.239 9.5
    endloop
  endfacet
  facet normal 0 0 1
    outer loop
      vertex 62.7 59.85 9.5
      vertex 66.2107 57.5042 9.5
      vertex 65.9909 57.95 9.5
    endloop
  endfacet
  facet normal 0 0 1
    outer loop
      vertex 66.4675 10.239 9.5
      vertex 62.7 6.93499 9.5
      vertex 66.3705 9.75147 9.5
    endloop
  endfacet
  facet normal 0 0 1
    outer loop
      vertex 62.7 59.85 9.5
      vertex 65.9909 57.95 9.5
      vertex 65.7147 58.3633 9.5
    endloop
  endfacet
  facet normal 0 0 1
    outer loop
      vertex 66.3705 9.75147 9.5
      vertex 62.7 6.93499 9.5
      vertex 66.2107 9.28079 9.5
    endloop
  endfacet
  facet normal 0 0 1
    outer loop
      vertex 62.7 59.85 9.5
      vertex 65.7147 58.3633 9.5
      vertex 65.387 58.737 9.5
    endloop
  endfacet
  facet normal 0 0 1
    outer loop
      vertex 66.2107 9.28079 9.5
      vertex 62.7 6.93499 9.5
      vertex 65.9909 8.83499 9.5
    endloop
  endfacet
  facet normal 0 0 1
    outer loop
      vertex 62.7 59.85 9.5
      vertex 65.387 58.737 9.5
      vertex 65.0133 59.0647 9.5
    endloop
  endfacet
  facet normal 0 0 1
    outer loop
      vertex 65.9909 8.83499 9.5
      vertex 62.7 6.93499 9.5
      vertex 65.7147 8.4217 9.5
    endloop
  endfacet
  facet normal 0 0 1
    outer loop
      vertex 62.7 59.85 9.5
      vertex 65.0133 59.0647 9.5
      vertex 64.6 59.3409 9.5
    endloop
  endfacet
  facet normal 0 0 1
    outer loop
      vertex 65.7147 8.4217 9.5
      vertex 62.7 6.93499 9.5
      vertex 65.387 8.04798 9.5
    endloop
  endfacet
  facet normal 0 0 1
    outer loop
      vertex 62.7 59.85 9.5
      vertex 64.6 59.3409 9.5
      vertex 64.1542 59.5607 9.5
    endloop
  endfacet
  facet normal 0 0 1
    outer loop
      vertex 65.387 8.04798 9.5
      vertex 62.7 6.93499 9.5
      vertex 65.0133 7.72024 9.5
    endloop
  endfacet
  facet normal 0 0 1
    outer loop
      vertex 62.7 59.85 9.5
      vertex 64.1542 59.5607 9.5
      vertex 63.6835 59.7205 9.5
    endloop
  endfacet
  facet normal 0 0 1
    outer loop
      vertex 65.0133 7.72024 9.5
      vertex 62.7 6.93499 9.5
      vertex 64.6 7.4441 9.5
    endloop
  endfacet
  facet normal 0 0 1
    outer loop
      vertex 62.7 59.85 9.5
      vertex 63.6835 59.7205 9.5
      vertex 63.196 59.8175 9.5
    endloop
  endfacet
  facet normal 0 0 1
    outer loop
      vertex 64.6 7.4441 9.5
      vertex 62.7 6.93499 9.5
      vertex 64.1542 7.22425 9.5
    endloop
  endfacet
  facet normal 0 0 1
    outer loop
      vertex 66.5 56.05 9.5
      vertex 62.7 59.85 9.5
      vertex 48.45 11.875 9.5
    endloop
  endfacet
  facet normal 0 0 1
    outer loop
      vertex 64.1542 7.22425 9.5
      vertex 62.7 6.93499 9.5
      vertex 63.6835 7.06448 9.5
    endloop
  endfacet
  facet normal 0 0 1
    outer loop
      vertex 63.6835 7.06448 9.5
      vertex 62.7 6.93499 9.5
      vertex 63.196 6.9675 9.5
    endloop
  endfacet
  facet normal 0 0 1
    outer loop
      vertex 62.7 59.85 9.5
      vertex 12.35 11.875 9.5
      vertex 48.45 11.875 9.5
    endloop
  endfacet
  facet normal 0 0 1
    outer loop
      vertex -62.7 6.93499 9.5
      vertex 12.35 9.12 9.5
      vertex 12.35 11.875 9.5
    endloop
  endfacet
  facet normal 0 0 1
    outer loop
      vertex 12.35 9.12 9.5
      vertex -62.7 6.93499 9.5
      vertex 12.35 9.11999 9.5
    endloop
  endfacet
  facet normal 0 0 1
    outer loop
      vertex 12.35 9.11999 9.5
      vertex -62.7 6.93499 9.5
      vertex 12.35 7.6 9.5
    endloop
  endfacet
  facet normal 0 0 1
    outer loop
      vertex 12.35 7.6 9.5
      vertex -62.7 6.93499 9.5
      vertex 12.35 6.935 9.5
    endloop
  endfacet
  facet normal -0 0 1
    outer loop
      vertex -62.7 59.85 9.5
      vertex 12.35 11.875 9.5
      vertex 62.7 59.85 9.5
    endloop
  endfacet
  facet normal 0 0 1
    outer loop
      vertex -62.7 6.93499 9.5
      vertex 12.35 11.875 9.5
      vertex -62.7 59.85 9.5
    endloop
  endfacet
  facet normal 0 0 1
    outer loop
      vertex 12.35 6.935 9.5
      vertex -62.7 6.93499 9.5
      vertex 12.35 6.93499 9.5
    endloop
  endfacet
  facet normal 0 0 1
    outer loop
      vertex -66.5 56.05 9.5
      vertex -62.7 59.85 9.5
      vertex -63.196 59.8175 9.5
    endloop
  endfacet
  facet normal 0 0 1
    outer loop
      vertex -62.7 59.85 9.5
      vertex -66.5 56.05 9.5
      vertex -62.7 6.93499 9.5
    endloop
  endfacet
  facet normal 0 0 1
    outer loop
      vertex -66.5 56.05 9.5
      vertex -63.196 59.8175 9.5
      vertex -63.6835 59.7205 9.5
    endloop
  endfacet
  facet normal -0 0 1
    outer loop
      vertex -66.5 10.735 9.5
      vertex -62.7 6.93499 9.5
      vertex -66.5 56.05 9.5
    endloop
  endfacet
  facet normal 0 0 1
    outer loop
      vertex -66.5 56.05 9.5
      vertex -63.6835 59.7205 9.5
      vertex -64.1542 59.5607 9.5
    endloop
  endfacet
  facet normal 0 0 1
    outer loop
      vertex -62.7 6.93499 9.5
      vertex -66.5 10.735 9.5
      vertex -63.196 6.9675 9.5
    endloop
  endfacet
  facet normal 0 0 1
    outer loop
      vertex -66.5 56.05 9.5
      vertex -64.1542 59.5607 9.5
      vertex -64.6 59.3409 9.5
    endloop
  endfacet
  facet normal 0 0 1
    outer loop
      vertex -63.196 6.9675 9.5
      vertex -66.5 10.735 9.5
      vertex -63.6835 7.06448 9.5
    endloop
  endfacet
  facet normal 0 0 1
    outer loop
      vertex -66.5 56.05 9.5
      vertex -64.6 59.3409 9.5
      vertex -65.0133 59.0647 9.5
    endloop
  endfacet
  facet normal 0 0 1
    outer loop
      vertex -63.6835 7.06448 9.5
      vertex -66.5 10.735 9.5
      vertex -64.1542 7.22425 9.5
    endloop
  endfacet
  facet normal 0 0 1
    outer loop
      vertex -66.5 56.05 9.5
      vertex -65.0133 59.0647 9.5
      vertex -65.387 58.737 9.5
    endloop
  endfacet
  facet normal 0 0 1
    outer loop
      vertex -64.1542 7.22425 9.5
      vertex -66.5 10.735 9.5
      vertex -64.6 7.4441 9.5
    endloop
  endfacet
  facet normal 0 0 1
    outer loop
      vertex -66.5 56.05 9.5
      vertex -65.387 58.737 9.5
      vertex -65.7147 58.3633 9.5
    endloop
  endfacet
  facet normal 0 0 1
    outer loop
      vertex -64.6 7.4441 9.5
      vertex -66.5 10.735 9.5
      vertex -65.0133 7.72024 9.5
    endloop
  endfacet
  facet normal 0 0 1
    outer loop
      vertex -66.5 56.05 9.5
      vertex -65.7147 58.3633 9.5
      vertex -65.9909 57.95 9.5
    endloop
  endfacet
  facet normal 0 0 1
    outer loop
      vertex -65.0133 7.72024 9.5
      vertex -66.5 10.735 9.5
      vertex -65.387 8.04798 9.5
    endloop
  endfacet
  facet normal 0 0 1
    outer loop
      vertex -66.5 56.05 9.5
      vertex -65.9909 57.95 9.5
      vertex -66.2107 57.5042 9.5
    endloop
  endfacet
  facet normal 0 0 1
    outer loop
      vertex -65.387 8.04798 9.5
      vertex -66.5 10.735 9.5
      vertex -65.7147 8.4217 9.5
    endloop
  endfacet
  facet normal 0 0 1
    outer loop
      vertex -66.5 56.05 9.5
      vertex -66.2107 57.5042 9.5
      vertex -66.3705 57.0335 9.5
    endloop
  endfacet
  facet normal 0 0 1
    outer loop
      vertex -65.7147 8.4217 9.5
      vertex -66.5 10.735 9.5
      vertex -65.9909 8.83499 9.5
    endloop
  endfacet
  facet normal 0 0 1
    outer loop
      vertex -66.5 56.05 9.5
      vertex -66.3705 57.0335 9.5
      vertex -66.4675 56.546 9.5
    endloop
  endfacet
  facet normal 0 0 1
    outer loop
      vertex -65.9909 8.83499 9.5
      vertex -66.5 10.735 9.5
      vertex -66.2107 9.28079 9.5
    endloop
  endfacet
  facet normal 0 0 1
    outer loop
      vertex -66.2107 9.28079 9.5
      vertex -66.5 10.735 9.5
      vertex -66.3705 9.75147 9.5
    endloop
  endfacet
  facet normal 0 0 1
    outer loop
      vertex -66.3705 9.75147 9.5
      vertex -66.5 10.735 9.5
      vertex -66.4675 10.239 9.5
    endloop
  endfacet
  facet normal 0 0 1
    outer loop
      vertex 62.7 6.93499 9.5
      vertex 48.45 11.875 9.5
      vertex 48.45 6.93499 9.5
    endloop
  endfacet
  facet normal 0 0 1
    outer loop
      vertex 45.6 9.11999 9.5
      vertex 45.41 7.6 9.5
      vertex 45.6 7.6 9.5
    endloop
  endfacet
  facet normal 0 0 1
    outer loop
      vertex 45.41 7.6 9.5
      vertex 43.7 5.50999 9.5
      vertex 45.41 5.50999 9.5
    endloop
  endfacet
  facet normal 0 0 1
    outer loop
      vertex 40.85 7.6 9.5
      vertex 45.41 7.6 9.5
      vertex 45.6 9.11999 9.5
    endloop
  endfacet
  facet normal 0 0 1
    outer loop
      vertex 45.41 7.6 9.5
      vertex 40.85 7.6 9.5
      vertex 43.7 5.50999 9.5
    endloop
  endfacet
  facet normal -0 0 1
    outer loop
      vertex 12.35 9.11999 9.5
      vertex 40.85 7.6 9.5
      vertex 45.6 9.11999 9.5
    endloop
  endfacet
  facet normal 0 0 1
    outer loop
      vertex 40.85 7.6 9.5
      vertex 12.35 9.11999 9.5
      vertex 12.35 7.6 9.5
    endloop
  endfacet
  facet normal 0.896908 -0.442217 0
    outer loop
      vertex 65.9909 8.83499 9.5
      vertex 66.2107 9.28079 0
      vertex 66.2107 9.28079 9.5
    endloop
  endfacet
  facet normal 0.896908 -0.442217 0
    outer loop
      vertex 66.2107 9.28079 0
      vertex 65.9909 8.83499 9.5
      vertex 65.9909 8.83499 0
    endloop
  endfacet
  facet normal 0.99786 -0.065384 0
    outer loop
      vertex 66.4675 10.239 9.5
      vertex 66.5 10.735 0
      vertex 66.5 10.735 9.5
    endloop
  endfacet
  facet normal 0.99786 -0.065384 0
    outer loop
      vertex 66.5 10.735 0
      vertex 66.4675 10.239 9.5
      vertex 66.4675 10.239 0
    endloop
  endfacet
  facet normal -0.946919 0.321474 0
    outer loop
      vertex -66.3705 57.0335 0
      vertex -66.2107 57.5042 9.5
      vertex -66.2107 57.5042 0
    endloop
  endfacet
  facet normal -0.946919 0.321474 0
    outer loop
      vertex -66.2107 57.5042 9.5
      vertex -66.3705 57.0335 0
      vertex -66.3705 57.0335 9.5
    endloop
  endfacet
  facet normal 0.946914 -0.321486 0
    outer loop
      vertex 66.2107 9.28079 9.5
      vertex 66.3705 9.75147 0
      vertex 66.3705 9.75147 9.5
    endloop
  endfacet
  facet normal 0.946914 -0.321486 0
    outer loop
      vertex 66.3705 9.75147 0
      vertex 66.2107 9.28079 9.5
      vertex 66.2107 9.28079 0
    endloop
  endfacet
  facet normal -0.99786 0.065384 0
    outer loop
      vertex -66.5 56.05 0
      vertex -66.4675 56.546 9.5
      vertex -66.4675 56.546 0
    endloop
  endfacet
  facet normal -0.99786 0.065384 0
    outer loop
      vertex -66.4675 56.546 9.5
      vertex -66.5 56.05 0
      vertex -66.5 56.05 9.5
    endloop
  endfacet
  facet normal 0.555545 -0.831487 0
    outer loop
      vertex 64.6 7.4441 0
      vertex 65.0133 7.72024 9.5
      vertex 64.6 7.4441 9.5
    endloop
  endfacet
  facet normal 0.555545 -0.831487 0
    outer loop
      vertex 65.0133 7.72024 9.5
      vertex 64.6 7.4441 0
      vertex 65.0133 7.72024 0
    endloop
  endfacet
  facet normal 0.659316 0.751866 -0
    outer loop
      vertex 65.387 58.737 0
      vertex 65.0133 59.0647 9.5
      vertex 65.387 58.737 9.5
    endloop
  endfacet
  facet normal 0.659316 0.751866 0
    outer loop
      vertex 65.0133 59.0647 9.5
      vertex 65.387 58.737 0
      vertex 65.0133 59.0647 0
    endloop
  endfacet
  facet normal 0 -1 0
    outer loop
      vertex -51.015 0 0
      vertex 51.015 0 9.5
      vertex -51.015 0 9.5
    endloop
  endfacet
  facet normal 0 -1 -0
    outer loop
      vertex 51.015 0 9.5
      vertex -51.015 0 0
      vertex 51.015 0 0
    endloop
  endfacet
  facet normal 1 0 0
    outer loop
      vertex 51.015 0 0
      vertex 51.015 6.93499 2.565
      vertex 51.015 0 9.5
    endloop
  endfacet
  facet normal 1 0 0
    outer loop
      vertex 51.015 6.93499 2.565
      vertex 51.015 0 0
      vertex 51.015 6.93499 0
    endloop
  endfacet
  facet normal -0 0.707107 0.707106
    outer loop
      vertex 12.35 6.555 2.94499
      vertex 51.015 0 9.5
      vertex 48.45 6.555 2.94499
    endloop
  endfacet
  facet normal -1.51051e-07 0.707107 0.707106
    outer loop
      vertex 51.015 6.93499 2.565
      vertex 48.45 6.555 2.94499
      vertex 51.015 0 9.5
    endloop
  endfacet
  facet normal 0 0.707107 0.707107
    outer loop
      vertex 48.45 6.555 2.94499
      vertex 51.015 6.93499 2.565
      vertex 48.45 6.93499 2.565
    endloop
  endfacet
  facet normal 0 0.707107 0.707106
    outer loop
      vertex 51.015 0 9.5
      vertex 12.35 6.555 2.94499
      vertex -51.015 0 9.5
    endloop
  endfacet
  facet normal -0 0.707107 0.707107
    outer loop
      vertex -51.015 6.93499 2.565
      vertex 12.35 6.555 2.94499
      vertex 12.35 6.93499 2.565
    endloop
  endfacet
  facet normal 6.11451e-09 0.707107 0.707106
    outer loop
      vertex 12.35 6.555 2.94499
      vertex -51.015 6.93499 2.565
      vertex -51.015 0 9.5
    endloop
  endfacet
  facet normal -1 0 0
    outer loop
      vertex -51.015 0 0
      vertex -51.015 6.93499 2.565
      vertex -51.015 6.93499 0
    endloop
  endfacet
  facet normal -1 -0 0
    outer loop
      vertex -51.015 6.93499 2.565
      vertex -51.015 0 0
      vertex -51.015 0 9.5
    endloop
  endfacet
  facet normal -1 0 0
    outer loop
      vertex 48.45 11.875 0
      vertex 48.45 6.93499 2.565
      vertex 48.45 11.875 9.5
    endloop
  endfacet
  facet normal -1 0 0
    outer loop
      vertex 48.45 6.555 0
      vertex 48.45 6.93499 2.565
      vertex 48.45 11.875 0
    endloop
  endfacet
  facet normal -1 -0 0
    outer loop
      vertex 48.45 6.93499 2.565
      vertex 48.45 6.555 0
      vertex 48.45 6.555 2.94499
    endloop
  endfacet
  facet normal -1 -0 0
    outer loop
      vertex 48.45 11.875 9.5
      vertex 48.45 6.93499 2.565
      vertex 48.45 6.93499 9.5
    endloop
  endfacet
  facet normal 1 -0 0
    outer loop
      vertex 12.35 9.11999 9.5
      vertex 12.35 9.12 0
      vertex 12.35 9.12 9.5
    endloop
  endfacet
  facet normal 1 0 0
    outer loop
      vertex 12.35 9.12 0
      vertex 12.35 9.11999 9.5
      vertex 12.35 9.11999 0
    endloop
  endfacet
  facet normal 1 -0 0
    outer loop
      vertex 12.35 9.12 9.5
      vertex 12.35 11.875 0
      vertex 12.35 11.875 9.5
    endloop
  endfacet
  facet normal 1 0 0
    outer loop
      vertex 12.35 11.875 0
      vertex 12.35 9.12 9.5
      vertex 12.35 9.12 0
    endloop
  endfacet
  facet normal 1 0 0
    outer loop
      vertex 12.35 6.93499 2.565
      vertex 12.35 6.935 9.5
      vertex 12.35 6.93499 9.5
    endloop
  endfacet
  facet normal 1 0 0
    outer loop
      vertex 12.35 6.935 9.5
      vertex 12.35 6.93499 2.565
      vertex 12.35 6.935 0
    endloop
  endfacet
  facet normal 1 0 0
    outer loop
      vertex 12.35 6.555 0
      vertex 12.35 6.93499 2.565
      vertex 12.35 6.555 2.94499
    endloop
  endfacet
  facet normal 1 0 0
    outer loop
      vertex 12.35 6.93499 2.565
      vertex 12.35 6.555 0
      vertex 12.35 6.935 0
    endloop
  endfacet
  facet normal 1 -0 0
    outer loop
      vertex 12.35 6.935 9.5
      vertex 12.35 7.6 0
      vertex 12.35 7.6 9.5
    endloop
  endfacet
  facet normal 1 0 0
    outer loop
      vertex 12.35 7.6 0
      vertex 12.35 6.935 9.5
      vertex 12.35 6.935 0
    endloop
  endfacet
  facet normal 0 -1 0
    outer loop
      vertex 12.35 11.875 0
      vertex 48.45 11.875 9.5
      vertex 12.35 11.875 9.5
    endloop
  endfacet
  facet normal 0 -1 -0
    outer loop
      vertex 48.45 11.875 9.5
      vertex 12.35 11.875 0
      vertex 48.45 11.875 0
    endloop
  endfacet
  facet normal 0 1 -0
    outer loop
      vertex 48.45 6.555 0
      vertex 12.35 6.555 2.94499
      vertex 48.45 6.555 2.94499
    endloop
  endfacet
  facet normal 0 1 0
    outer loop
      vertex 12.35 6.555 2.94499
      vertex 48.45 6.555 0
      vertex 12.35 6.555 0
    endloop
  endfacet
  facet normal 0 -1 0
    outer loop
      vertex 43.7 5.50999 8.35999
      vertex 45.41 5.50999 9.5
      vertex 43.7 5.50999 9.5
    endloop
  endfacet
  facet normal 0 -1 -0
    outer loop
      vertex 45.41 5.50999 9.5
      vertex 43.7 5.50999 8.35999
      vertex 45.41 5.50999 8.35999
    endloop
  endfacet
  facet normal 1 0 0
    outer loop
      vertex 45.41 5.50999 8.35999
      vertex 45.41 7.6 9.5
      vertex 45.41 5.50999 9.5
    endloop
  endfacet
  facet normal 1 0 0
    outer loop
      vertex 45.41 7.6 9.5
      vertex 45.41 5.50999 8.35999
      vertex 45.41 7.6 6.26999
    endloop
  endfacet
  facet normal -0.591366 -0.806404 0
    outer loop
      vertex 40.85 7.6 9.5
      vertex 43.7 5.50999 8.35999
      vertex 43.7 5.50999 9.5
    endloop
  endfacet
  facet normal -0.591366 -0.806404 0
    outer loop
      vertex 43.7 5.50999 8.35999
      vertex 40.85 7.6 9.5
      vertex 40.85 7.6 6.26999
    endloop
  endfacet
  facet normal 0 -0.707105 -0.707108
    outer loop
      vertex 43.7 5.50999 8.35999
      vertex 45.41 7.6 6.26999
      vertex 45.41 5.50999 8.35999
    endloop
  endfacet
  facet normal -0 -0.707105 -0.707108
    outer loop
      vertex 45.41 7.6 6.26999
      vertex 43.7 5.50999 8.35999
      vertex 40.85 7.6 6.26999
    endloop
  endfacet
  facet normal 1 -0 0
    outer loop
      vertex 45.6 7.6 9.5
      vertex 45.6 9.11999 0
      vertex 45.6 9.11999 9.5
    endloop
  endfacet
  facet normal 1 0 0
    outer loop
      vertex 45.6 9.11999 0
      vertex 45.6 7.6 9.5
      vertex 45.6 7.6 0
    endloop
  endfacet
  facet normal 0 -1 0
    outer loop
      vertex 12.35 7.6 9.5
      vertex 40.85 7.6 6.26999
      vertex 40.85 7.6 9.5
    endloop
  endfacet
  facet normal 0 -1 0
    outer loop
      vertex 45.6 7.6 0
      vertex 40.85 7.6 6.26999
      vertex 12.35 7.6 0
    endloop
  endfacet
  facet normal 0 -1 0
    outer loop
      vertex 12.35 7.6 0
      vertex 40.85 7.6 6.26999
      vertex 12.35 7.6 9.5
    endloop
  endfacet
  facet normal 0 -1 0
    outer loop
      vertex 45.41 7.6 6.26999
      vertex 45.6 7.6 9.5
      vertex 45.41 7.6 9.5
    endloop
  endfacet
  facet normal 0 -1 0
    outer loop
      vertex 45.41 7.6 6.26999
      vertex 45.6 7.6 0
      vertex 45.6 7.6 9.5
    endloop
  endfacet
  facet normal 0 -1 0
    outer loop
      vertex 40.85 7.6 6.26999
      vertex 45.6 7.6 0
      vertex 45.41 7.6 6.26999
    endloop
  endfacet
  facet normal 0 1 -0
    outer loop
      vertex 45.6 9.11999 0
      vertex 12.35 9.11999 9.5
      vertex 45.6 9.11999 9.5
    endloop
  endfacet
  facet normal 0 1 0
    outer loop
      vertex 12.35 9.11999 9.5
      vertex 45.6 9.11999 0
      vertex 12.35 9.11999 0
    endloop
  endfacet
endsolid OpenSCAD_Model
