solid OpenSCAD_Model
  facet normal 0.74095 0.67156 0
    outer loop
      vertex 4.83132 3.96496 1.5
      vertex 4.41942 4.41942 0
      vertex 4.41942 4.41942 1.5
    endloop
  endfacet
  facet normal 0.74095 0.67156 0
    outer loop
      vertex 4.41942 4.41942 0
      vertex 4.83132 3.96496 1.5
      vertex 4.83132 3.96496 0
    endloop
  endfacet
  facet normal 0.989178 0.146721 0
    outer loop
      vertex 6.2199 0.612607 1.5
      vertex 6.12991 1.21931 0
      vertex 6.12991 1.21931 1.5
    endloop
  endfacet
  facet normal 0.989178 0.146721 0
    outer loop
      vertex 6.12991 1.21931 0
      vertex 6.2199 0.612607 1.5
      vertex 6.2199 0.612607 0
    endloop
  endfacet
  facet normal 0.998795 0.0490751 0
    outer loop
      vertex 6.25 0 1.5
      vertex 6.2199 0.612607 0
      vertex 6.2199 0.612607 1.5
    endloop
  endfacet
  facet normal 0.998795 0.0490751 0
    outer loop
      vertex 6.2199 0.612607 0
      vertex 6.25 0 1.5
      vertex 6.25 0 0
    endloop
  endfacet
  facet normal 0.970032 0.242977 0
    outer loop
      vertex 6.12991 1.21931 1.5
      vertex 5.98088 1.81428 0
      vertex 5.98088 1.81428 1.5
    endloop
  endfacet
  facet normal 0.970032 0.242977 0
    outer loop
      vertex 5.98088 1.81428 0
      vertex 6.12991 1.21931 1.5
      vertex 6.12991 1.21931 0
    endloop
  endfacet
  facet normal 0.336891 -0.941544 0
    outer loop
      vertex 1.81428 -5.98088 0
      vertex 2.39177 -5.77425 1.5
      vertex 1.81428 -5.98088 1.5
    endloop
  endfacet
  facet normal 0.336891 -0.941544 0
    outer loop
      vertex 2.39177 -5.77425 1.5
      vertex 1.81428 -5.98088 0
      vertex 2.39177 -5.77425 0
    endloop
  endfacet
  facet normal 0.857722 0.514114 0
    outer loop
      vertex 5.51201 2.94623 1.5
      vertex 5.19668 3.47231 0
      vertex 5.19668 3.47231 1.5
    endloop
  endfacet
  facet normal 0.857722 0.514114 0
    outer loop
      vertex 5.19668 3.47231 0
      vertex 5.51201 2.94623 1.5
      vertex 5.51201 2.94623 0
    endloop
  endfacet
  facet normal 0.941544 0.336891 0
    outer loop
      vertex 5.98088 1.81428 1.5
      vertex 5.77425 2.39177 0
      vertex 5.77425 2.39177 1.5
    endloop
  endfacet
  facet normal 0.941544 0.336891 0
    outer loop
      vertex 5.77425 2.39177 0
      vertex 5.98088 1.81428 1.5
      vertex 5.98088 1.81428 0
    endloop
  endfacet
  facet normal 0.242977 0.970032 -0
    outer loop
      vertex 1.81428 5.98088 0
      vertex 1.21931 6.12991 1.5
      vertex 1.81428 5.98088 1.5
    endloop
  endfacet
  facet normal 0.242977 0.970032 0
    outer loop
      vertex 1.21931 6.12991 1.5
      vertex 1.81428 5.98088 0
      vertex 1.21931 6.12991 0
    endloop
  endfacet
  facet normal -0.74095 0.67156 0
    outer loop
      vertex -4.83132 3.96496 0
      vertex -4.41942 4.41942 1.5
      vertex -4.41942 4.41942 0
    endloop
  endfacet
  facet normal -0.74095 0.67156 0
    outer loop
      vertex -4.41942 4.41942 1.5
      vertex -4.83132 3.96496 0
      vertex -4.83132 3.96496 1.5
    endloop
  endfacet
  facet normal 0.0490751 -0.998795 0
    outer loop
      vertex 0 -6.25 0
      vertex 0.612607 -6.2199 1.5
      vertex 0 -6.25 1.5
    endloop
  endfacet
  facet normal 0.0490751 -0.998795 0
    outer loop
      vertex 0.612607 -6.2199 1.5
      vertex 0 -6.25 0
      vertex 0.612607 -6.2199 0
    endloop
  endfacet
  facet normal 0.427555 0.903989 -0
    outer loop
      vertex 2.94623 5.51201 0
      vertex 2.39177 5.77425 1.5
      vertex 2.94623 5.51201 1.5
    endloop
  endfacet
  facet normal 0.427555 0.903989 0
    outer loop
      vertex 2.39177 5.77425 1.5
      vertex 2.94623 5.51201 0
      vertex 2.39177 5.77425 0
    endloop
  endfacet
  facet normal 0.67156 0.74095 -0
    outer loop
      vertex 4.41942 4.41942 0
      vertex 3.96496 4.83132 1.5
      vertex 4.41942 4.41942 1.5
    endloop
  endfacet
  facet normal 0.67156 0.74095 0
    outer loop
      vertex 3.96496 4.83132 1.5
      vertex 4.41942 4.41942 0
      vertex 3.96496 4.83132 0
    endloop
  endfacet
  facet normal -0.595684 -0.803219 0
    outer loop
      vertex -3.96496 -4.83132 0
      vertex -3.47231 -5.19668 1.5
      vertex -3.96496 -4.83132 1.5
    endloop
  endfacet
  facet normal -0.595684 -0.803219 -0
    outer loop
      vertex -3.47231 -5.19668 1.5
      vertex -3.96496 -4.83132 0
      vertex -3.47231 -5.19668 0
    endloop
  endfacet
  facet normal 0.242977 -0.970032 0
    outer loop
      vertex 1.21931 -6.12991 0
      vertex 1.81428 -5.98088 1.5
      vertex 1.21931 -6.12991 1.5
    endloop
  endfacet
  facet normal 0.242977 -0.970032 0
    outer loop
      vertex 1.81428 -5.98088 1.5
      vertex 1.21931 -6.12991 0
      vertex 1.81428 -5.98088 0
    endloop
  endfacet
  facet normal 0.989178 -0.146721 0
    outer loop
      vertex 6.12991 -1.21931 1.5
      vertex 6.2199 -0.612607 0
      vertex 6.2199 -0.612607 1.5
    endloop
  endfacet
  facet normal 0.989178 -0.146721 0
    outer loop
      vertex 6.2199 -0.612607 0
      vertex 6.12991 -1.21931 1.5
      vertex 6.12991 -1.21931 0
    endloop
  endfacet
  facet normal 0.514114 -0.857722 0
    outer loop
      vertex 2.94623 -5.51201 0
      vertex 3.47231 -5.19668 1.5
      vertex 2.94623 -5.51201 1.5
    endloop
  endfacet
  facet normal 0.514114 -0.857722 0
    outer loop
      vertex 3.47231 -5.19668 1.5
      vertex 2.94623 -5.51201 0
      vertex 3.47231 -5.19668 0
    endloop
  endfacet
  facet normal -0.242977 -0.970032 0
    outer loop
      vertex -1.81428 -5.98088 0
      vertex -1.21931 -6.12991 1.5
      vertex -1.81428 -5.98088 1.5
    endloop
  endfacet
  facet normal -0.242977 -0.970032 -0
    outer loop
      vertex -1.21931 -6.12991 1.5
      vertex -1.81428 -5.98088 0
      vertex -1.21931 -6.12991 0
    endloop
  endfacet
  facet normal -0.595684 0.803219 0
    outer loop
      vertex -3.47231 5.19668 0
      vertex -3.96496 4.83132 1.5
      vertex -3.47231 5.19668 1.5
    endloop
  endfacet
  facet normal -0.595684 0.803219 0
    outer loop
      vertex -3.96496 4.83132 1.5
      vertex -3.47231 5.19668 0
      vertex -3.96496 4.83132 0
    endloop
  endfacet
  facet normal -0.998795 -0.0490751 0
    outer loop
      vertex -6.2199 -0.612607 0
      vertex -6.25 0 1.5
      vertex -6.25 0 0
    endloop
  endfacet
  facet normal -0.998795 -0.0490751 0
    outer loop
      vertex -6.25 0 1.5
      vertex -6.2199 -0.612607 0
      vertex -6.2199 -0.612607 1.5
    endloop
  endfacet
  facet normal -0.970032 -0.242977 0
    outer loop
      vertex -5.98088 -1.81428 0
      vertex -6.12991 -1.21931 1.5
      vertex -6.12991 -1.21931 0
    endloop
  endfacet
  facet normal -0.970032 -0.242977 0
    outer loop
      vertex -6.12991 -1.21931 1.5
      vertex -5.98088 -1.81428 0
      vertex -5.98088 -1.81428 1.5
    endloop
  endfacet
  facet normal 0.970032 -0.242977 0
    outer loop
      vertex 5.98088 -1.81428 1.5
      vertex 6.12991 -1.21931 0
      vertex 6.12991 -1.21931 1.5
    endloop
  endfacet
  facet normal 0.970032 -0.242977 0
    outer loop
      vertex 6.12991 -1.21931 0
      vertex 5.98088 -1.81428 1.5
      vertex 5.98088 -1.81428 0
    endloop
  endfacet
  facet normal -0.514114 0.857722 0
    outer loop
      vertex -2.94623 5.51201 0
      vertex -3.47231 5.19668 1.5
      vertex -2.94623 5.51201 1.5
    endloop
  endfacet
  facet normal -0.514114 0.857722 0
    outer loop
      vertex -3.47231 5.19668 1.5
      vertex -2.94623 5.51201 0
      vertex -3.47231 5.19668 0
    endloop
  endfacet
  facet normal 0.595684 0.803219 -0
    outer loop
      vertex 3.96496 4.83132 0
      vertex 3.47231 5.19668 1.5
      vertex 3.96496 4.83132 1.5
    endloop
  endfacet
  facet normal 0.595684 0.803219 0
    outer loop
      vertex 3.47231 5.19668 1.5
      vertex 3.96496 4.83132 0
      vertex 3.47231 5.19668 0
    endloop
  endfacet
  facet normal -0.903989 -0.427555 0
    outer loop
      vertex -5.51201 -2.94623 0
      vertex -5.77425 -2.39177 1.5
      vertex -5.77425 -2.39177 0
    endloop
  endfacet
  facet normal -0.903989 -0.427555 0
    outer loop
      vertex -5.77425 -2.39177 1.5
      vertex -5.51201 -2.94623 0
      vertex -5.51201 -2.94623 1.5
    endloop
  endfacet
  facet normal 0.941544 -0.336891 0
    outer loop
      vertex 5.77425 -2.39177 1.5
      vertex 5.98088 -1.81428 0
      vertex 5.98088 -1.81428 1.5
    endloop
  endfacet
  facet normal 0.941544 -0.336891 0
    outer loop
      vertex 5.98088 -1.81428 0
      vertex 5.77425 -2.39177 1.5
      vertex 5.77425 -2.39177 0
    endloop
  endfacet
  facet normal 0.146721 0.989178 -0
    outer loop
      vertex 1.21931 6.12991 0
      vertex 0.612607 6.2199 1.5
      vertex 1.21931 6.12991 1.5
    endloop
  endfacet
  facet normal 0.146721 0.989178 0
    outer loop
      vertex 0.612607 6.2199 1.5
      vertex 1.21931 6.12991 0
      vertex 0.612607 6.2199 0
    endloop
  endfacet
  facet normal -0.427555 0.903989 0
    outer loop
      vertex -2.39177 5.77425 0
      vertex -2.94623 5.51201 1.5
      vertex -2.39177 5.77425 1.5
    endloop
  endfacet
  facet normal -0.427555 0.903989 0
    outer loop
      vertex -2.94623 5.51201 1.5
      vertex -2.39177 5.77425 0
      vertex -2.94623 5.51201 0
    endloop
  endfacet
  facet normal 0.514114 0.857722 -0
    outer loop
      vertex 3.47231 5.19668 0
      vertex 2.94623 5.51201 1.5
      vertex 3.47231 5.19668 1.5
    endloop
  endfacet
  facet normal 0.514114 0.857722 0
    outer loop
      vertex 2.94623 5.51201 1.5
      vertex 3.47231 5.19668 0
      vertex 2.94623 5.51201 0
    endloop
  endfacet
  facet normal 0.427555 -0.903989 0
    outer loop
      vertex 2.39177 -5.77425 0
      vertex 2.94623 -5.51201 1.5
      vertex 2.39177 -5.77425 1.5
    endloop
  endfacet
  facet normal 0.427555 -0.903989 0
    outer loop
      vertex 2.94623 -5.51201 1.5
      vertex 2.39177 -5.77425 0
      vertex 2.94623 -5.51201 0
    endloop
  endfacet
  facet normal -0.941544 -0.336891 0
    outer loop
      vertex -5.77425 -2.39177 0
      vertex -5.98088 -1.81428 1.5
      vertex -5.98088 -1.81428 0
    endloop
  endfacet
  facet normal -0.941544 -0.336891 0
    outer loop
      vertex -5.98088 -1.81428 1.5
      vertex -5.77425 -2.39177 0
      vertex -5.77425 -2.39177 1.5
    endloop
  endfacet
  facet normal 0.857722 -0.514114 0
    outer loop
      vertex 5.19668 -3.47231 1.5
      vertex 5.51201 -2.94623 0
      vertex 5.51201 -2.94623 1.5
    endloop
  endfacet
  facet normal 0.857722 -0.514114 0
    outer loop
      vertex 5.51201 -2.94623 0
      vertex 5.19668 -3.47231 1.5
      vertex 5.19668 -3.47231 0
    endloop
  endfacet
  facet normal 0.903989 -0.427555 0
    outer loop
      vertex 5.51201 -2.94623 1.5
      vertex 5.77425 -2.39177 0
      vertex 5.77425 -2.39177 1.5
    endloop
  endfacet
  facet normal 0.903989 -0.427555 0
    outer loop
      vertex 5.77425 -2.39177 0
      vertex 5.51201 -2.94623 1.5
      vertex 5.51201 -2.94623 0
    endloop
  endfacet
  facet normal 0.998795 -0.0490751 0
    outer loop
      vertex 6.2199 -0.612607 1.5
      vertex 6.25 0 0
      vertex 6.25 0 1.5
    endloop
  endfacet
  facet normal 0.998795 -0.0490751 0
    outer loop
      vertex 6.25 0 0
      vertex 6.2199 -0.612607 1.5
      vertex 6.2199 -0.612607 0
    endloop
  endfacet
  facet normal -0.146721 0.989178 0
    outer loop
      vertex -0.612607 6.2199 0
      vertex -1.21931 6.12991 1.5
      vertex -0.612607 6.2199 1.5
    endloop
  endfacet
  facet normal -0.146721 0.989178 0
    outer loop
      vertex -1.21931 6.12991 1.5
      vertex -0.612607 6.2199 0
      vertex -1.21931 6.12991 0
    endloop
  endfacet
  facet normal 0.146721 -0.989178 0
    outer loop
      vertex 0.612607 -6.2199 0
      vertex 1.21931 -6.12991 1.5
      vertex 0.612607 -6.2199 1.5
    endloop
  endfacet
  facet normal 0.146721 -0.989178 0
    outer loop
      vertex 1.21931 -6.12991 1.5
      vertex 0.612607 -6.2199 0
      vertex 1.21931 -6.12991 0
    endloop
  endfacet
  facet normal 0.74095 -0.67156 0
    outer loop
      vertex 4.41942 -4.41942 1.5
      vertex 4.83132 -3.96496 0
      vertex 4.83132 -3.96496 1.5
    endloop
  endfacet
  facet normal 0.74095 -0.67156 0
    outer loop
      vertex 4.83132 -3.96496 0
      vertex 4.41942 -4.41942 1.5
      vertex 4.41942 -4.41942 0
    endloop
  endfacet
  facet normal 0.803219 -0.595684 0
    outer loop
      vertex 4.83132 -3.96496 1.5
      vertex 5.19668 -3.47231 0
      vertex 5.19668 -3.47231 1.5
    endloop
  endfacet
  facet normal 0.803219 -0.595684 0
    outer loop
      vertex 5.19668 -3.47231 0
      vertex 4.83132 -3.96496 1.5
      vertex 4.83132 -3.96496 0
    endloop
  endfacet
  facet normal -0.242977 0.970032 0
    outer loop
      vertex -1.21931 6.12991 0
      vertex -1.81428 5.98088 1.5
      vertex -1.21931 6.12991 1.5
    endloop
  endfacet
  facet normal -0.242977 0.970032 0
    outer loop
      vertex -1.81428 5.98088 1.5
      vertex -1.21931 6.12991 0
      vertex -1.81428 5.98088 0
    endloop
  endfacet
  facet normal 0.803219 0.595684 0
    outer loop
      vertex 5.19668 3.47231 1.5
      vertex 4.83132 3.96496 0
      vertex 4.83132 3.96496 1.5
    endloop
  endfacet
  facet normal 0.803219 0.595684 0
    outer loop
      vertex 4.83132 3.96496 0
      vertex 5.19668 3.47231 1.5
      vertex 5.19668 3.47231 0
    endloop
  endfacet
  facet normal 0.0490751 0.998795 -0
    outer loop
      vertex 0.612607 6.2199 0
      vertex 0 6.25 1.5
      vertex 0.612607 6.2199 1.5
    endloop
  endfacet
  facet normal 0.0490751 0.998795 0
    outer loop
      vertex 0 6.25 1.5
      vertex 0.612607 6.2199 0
      vertex 0 6.25 0
    endloop
  endfacet
  facet normal 0.903989 0.427555 0
    outer loop
      vertex 5.77425 2.39177 1.5
      vertex 5.51201 2.94623 0
      vertex 5.51201 2.94623 1.5
    endloop
  endfacet
  facet normal 0.903989 0.427555 0
    outer loop
      vertex 5.51201 2.94623 0
      vertex 5.77425 2.39177 1.5
      vertex 5.77425 2.39177 0
    endloop
  endfacet
  facet normal -0.857722 0.514114 0
    outer loop
      vertex -5.51201 2.94623 0
      vertex -5.19668 3.47231 1.5
      vertex -5.19668 3.47231 0
    endloop
  endfacet
  facet normal -0.857722 0.514114 0
    outer loop
      vertex -5.19668 3.47231 1.5
      vertex -5.51201 2.94623 0
      vertex -5.51201 2.94623 1.5
    endloop
  endfacet
  facet normal -0.67156 0.74095 0
    outer loop
      vertex -3.96496 4.83132 0
      vertex -4.41942 4.41942 1.5
      vertex -3.96496 4.83132 1.5
    endloop
  endfacet
  facet normal -0.67156 0.74095 0
    outer loop
      vertex -4.41942 4.41942 1.5
      vertex -3.96496 4.83132 0
      vertex -4.41942 4.41942 0
    endloop
  endfacet
  facet normal -0.857722 -0.514114 0
    outer loop
      vertex -5.19668 -3.47231 0
      vertex -5.51201 -2.94623 1.5
      vertex -5.51201 -2.94623 0
    endloop
  endfacet
  facet normal -0.857722 -0.514114 0
    outer loop
      vertex -5.51201 -2.94623 1.5
      vertex -5.19668 -3.47231 0
      vertex -5.19668 -3.47231 1.5
    endloop
  endfacet
  facet normal -0.427555 -0.903989 0
    outer loop
      vertex -2.94623 -5.51201 0
      vertex -2.39177 -5.77425 1.5
      vertex -2.94623 -5.51201 1.5
    endloop
  endfacet
  facet normal -0.427555 -0.903989 -0
    outer loop
      vertex -2.39177 -5.77425 1.5
      vertex -2.94623 -5.51201 0
      vertex -2.39177 -5.77425 0
    endloop
  endfacet
  facet normal -0.74095 -0.67156 0
    outer loop
      vertex -4.41942 -4.41942 0
      vertex -4.83132 -3.96496 1.5
      vertex -4.83132 -3.96496 0
    endloop
  endfacet
  facet normal -0.74095 -0.67156 0
    outer loop
      vertex -4.83132 -3.96496 1.5
      vertex -4.41942 -4.41942 0
      vertex -4.41942 -4.41942 1.5
    endloop
  endfacet
  facet normal -0.336891 0.941544 0
    outer loop
      vertex -1.81428 5.98088 0
      vertex -2.39177 5.77425 1.5
      vertex -1.81428 5.98088 1.5
    endloop
  endfacet
  facet normal -0.336891 0.941544 0
    outer loop
      vertex -2.39177 5.77425 1.5
      vertex -1.81428 5.98088 0
      vertex -2.39177 5.77425 0
    endloop
  endfacet
  facet normal -0.514114 -0.857722 0
    outer loop
      vertex -3.47231 -5.19668 0
      vertex -2.94623 -5.51201 1.5
      vertex -3.47231 -5.19668 1.5
    endloop
  endfacet
  facet normal -0.514114 -0.857722 -0
    outer loop
      vertex -2.94623 -5.51201 1.5
      vertex -3.47231 -5.19668 0
      vertex -2.94623 -5.51201 0
    endloop
  endfacet
  facet normal 0.595684 -0.803219 0
    outer loop
      vertex 3.47231 -5.19668 0
      vertex 3.96496 -4.83132 1.5
      vertex 3.47231 -5.19668 1.5
    endloop
  endfacet
  facet normal 0.595684 -0.803219 0
    outer loop
      vertex 3.96496 -4.83132 1.5
      vertex 3.47231 -5.19668 0
      vertex 3.96496 -4.83132 0
    endloop
  endfacet
  facet normal -0.0490751 0.998795 0
    outer loop
      vertex 0 6.25 0
      vertex -0.612607 6.2199 1.5
      vertex 0 6.25 1.5
    endloop
  endfacet
  facet normal -0.0490751 0.998795 0
    outer loop
      vertex -0.612607 6.2199 1.5
      vertex 0 6.25 0
      vertex -0.612607 6.2199 0
    endloop
  endfacet
  facet normal -0.970032 0.242977 0
    outer loop
      vertex -6.12991 1.21931 0
      vertex -5.98088 1.81428 1.5
      vertex -5.98088 1.81428 0
    endloop
  endfacet
  facet normal -0.970032 0.242977 0
    outer loop
      vertex -5.98088 1.81428 1.5
      vertex -6.12991 1.21931 0
      vertex -6.12991 1.21931 1.5
    endloop
  endfacet
  facet normal -0.941544 0.336891 0
    outer loop
      vertex -5.98088 1.81428 0
      vertex -5.77425 2.39177 1.5
      vertex -5.77425 2.39177 0
    endloop
  endfacet
  facet normal -0.941544 0.336891 0
    outer loop
      vertex -5.77425 2.39177 1.5
      vertex -5.98088 1.81428 0
      vertex -5.98088 1.81428 1.5
    endloop
  endfacet
  facet normal 0.336891 0.941544 -0
    outer loop
      vertex 2.39177 5.77425 0
      vertex 1.81428 5.98088 1.5
      vertex 2.39177 5.77425 1.5
    endloop
  endfacet
  facet normal 0.336891 0.941544 0
    outer loop
      vertex 1.81428 5.98088 1.5
      vertex 2.39177 5.77425 0
      vertex 1.81428 5.98088 0
    endloop
  endfacet
  facet normal -0.803219 -0.595684 0
    outer loop
      vertex -4.83132 -3.96496 0
      vertex -5.19668 -3.47231 1.5
      vertex -5.19668 -3.47231 0
    endloop
  endfacet
  facet normal -0.803219 -0.595684 0
    outer loop
      vertex -5.19668 -3.47231 1.5
      vertex -4.83132 -3.96496 0
      vertex -4.83132 -3.96496 1.5
    endloop
  endfacet
  facet normal -0.989178 -0.146721 0
    outer loop
      vertex -6.12991 -1.21931 0
      vertex -6.2199 -0.612607 1.5
      vertex -6.2199 -0.612607 0
    endloop
  endfacet
  facet normal -0.989178 -0.146721 0
    outer loop
      vertex -6.2199 -0.612607 1.5
      vertex -6.12991 -1.21931 0
      vertex -6.12991 -1.21931 1.5
    endloop
  endfacet
  facet normal -0.903989 0.427555 0
    outer loop
      vertex -5.77425 2.39177 0
      vertex -5.51201 2.94623 1.5
      vertex -5.51201 2.94623 0
    endloop
  endfacet
  facet normal -0.903989 0.427555 0
    outer loop
      vertex -5.51201 2.94623 1.5
      vertex -5.77425 2.39177 0
      vertex -5.77425 2.39177 1.5
    endloop
  endfacet
  facet normal 0 0 -1
    outer loop
      vertex 3.4 0 0
      vertex 6.25 0 0
      vertex 6.2199 -0.612607 0
    endloop
  endfacet
  facet normal 0 0 -1
    outer loop
      vertex 3.38363 -0.333258 0
      vertex 6.2199 -0.612607 0
      vertex 6.12991 -1.21931 0
    endloop
  endfacet
  facet normal 0 0 -1
    outer loop
      vertex 6.25 0 0
      vertex 3.4 0 0
      vertex 6.2199 0.612607 0
    endloop
  endfacet
  facet normal 0 0 -1
    outer loop
      vertex 3.33467 -0.663306 0
      vertex 6.12991 -1.21931 0
      vertex 5.98088 -1.81428 0
    endloop
  endfacet
  facet normal 0 0 -1
    outer loop
      vertex 3.38363 0.333258 0
      vertex 6.2199 0.612607 0
      vertex 3.4 0 0
    endloop
  endfacet
  facet normal 0 0 -1
    outer loop
      vertex 3.2536 -0.986967 0
      vertex 5.98088 -1.81428 0
      vertex 5.77425 -2.39177 0
    endloop
  endfacet
  facet normal -0 0 -1
    outer loop
      vertex 6.2199 0.612607 0
      vertex 3.38363 0.333258 0
      vertex 6.12991 1.21931 0
    endloop
  endfacet
  facet normal 0 0 -1
    outer loop
      vertex 3.14119 -1.30112 0
      vertex 5.77425 -2.39177 0
      vertex 5.51201 -2.94623 0
    endloop
  endfacet
  facet normal 0 0 -1
    outer loop
      vertex 3.33467 0.663306 0
      vertex 6.12991 1.21931 0
      vertex 3.38363 0.333258 0
    endloop
  endfacet
  facet normal 0 0 -1
    outer loop
      vertex 2.99853 -1.60275 0
      vertex 5.51201 -2.94623 0
      vertex 5.19668 -3.47231 0
    endloop
  endfacet
  facet normal -0 0 -1
    outer loop
      vertex 6.12991 1.21931 0
      vertex 3.33467 0.663306 0
      vertex 5.98088 1.81428 0
    endloop
  endfacet
  facet normal 0 0 -1
    outer loop
      vertex 2.827 -1.88894 0
      vertex 5.19668 -3.47231 0
      vertex 4.83132 -3.96496 0
    endloop
  endfacet
  facet normal 0 0 -1
    outer loop
      vertex 3.2536 0.986967 0
      vertex 5.98088 1.81428 0
      vertex 3.33467 0.663306 0
    endloop
  endfacet
  facet normal 0 0 -1
    outer loop
      vertex 2.62823 -2.15694 0
      vertex 4.83132 -3.96496 0
      vertex 4.41942 -4.41942 0
    endloop
  endfacet
  facet normal -0 0 -1
    outer loop
      vertex 5.98088 1.81428 0
      vertex 3.2536 0.986967 0
      vertex 5.77425 2.39177 0
    endloop
  endfacet
  facet normal 0 0 -1
    outer loop
      vertex 2.40416 -2.40416 0
      vertex 4.41942 -4.41942 0
      vertex 3.96496 -4.83132 0
    endloop
  endfacet
  facet normal 0 0 -1
    outer loop
      vertex 3.14119 1.30112 0
      vertex 5.77425 2.39177 0
      vertex 3.2536 0.986967 0
    endloop
  endfacet
  facet normal 0 0 -1
    outer loop
      vertex 2.15694 -2.62823 0
      vertex 3.96496 -4.83132 0
      vertex 3.47231 -5.19668 0
    endloop
  endfacet
  facet normal -0 0 -1
    outer loop
      vertex 5.77425 2.39177 0
      vertex 3.14119 1.30112 0
      vertex 5.51201 2.94623 0
    endloop
  endfacet
  facet normal 0 0 -1
    outer loop
      vertex 2.99853 1.60275 0
      vertex 5.51201 2.94623 0
      vertex 3.14119 1.30112 0
    endloop
  endfacet
  facet normal 0 0 -1
    outer loop
      vertex 6.2199 -0.612607 0
      vertex 3.38363 -0.333258 0
      vertex 3.4 0 0
    endloop
  endfacet
  facet normal 0 0 -1
    outer loop
      vertex 6.12991 -1.21931 0
      vertex 3.33467 -0.663306 0
      vertex 3.38363 -0.333258 0
    endloop
  endfacet
  facet normal 0 0 -1
    outer loop
      vertex 5.98088 -1.81428 0
      vertex 3.2536 -0.986967 0
      vertex 3.33467 -0.663306 0
    endloop
  endfacet
  facet normal 0 0 -1
    outer loop
      vertex 5.77425 -2.39177 0
      vertex 3.14119 -1.30112 0
      vertex 3.2536 -0.986967 0
    endloop
  endfacet
  facet normal 0 0 -1
    outer loop
      vertex 5.51201 -2.94623 0
      vertex 2.99853 -1.60275 0
      vertex 3.14119 -1.30112 0
    endloop
  endfacet
  facet normal 0 0 -1
    outer loop
      vertex 1.88894 -2.827 0
      vertex 3.47231 -5.19668 0
      vertex 2.94623 -5.51201 0
    endloop
  endfacet
  facet normal 0 0 -1
    outer loop
      vertex 5.19668 -3.47231 0
      vertex 2.827 -1.88894 0
      vertex 2.99853 -1.60275 0
    endloop
  endfacet
  facet normal 0 0 -1
    outer loop
      vertex 4.83132 -3.96496 0
      vertex 2.62823 -2.15694 0
      vertex 2.827 -1.88894 0
    endloop
  endfacet
  facet normal 0 0 -1
    outer loop
      vertex 4.41942 -4.41942 0
      vertex 2.40416 -2.40416 0
      vertex 2.62823 -2.15694 0
    endloop
  endfacet
  facet normal 0 0 -1
    outer loop
      vertex 1.60275 -2.99853 0
      vertex 2.94623 -5.51201 0
      vertex 2.39177 -5.77425 0
    endloop
  endfacet
  facet normal 0 0 -1
    outer loop
      vertex 3.96496 -4.83132 0
      vertex 2.15694 -2.62823 0
      vertex 2.40416 -2.40416 0
    endloop
  endfacet
  facet normal 0 0 -1
    outer loop
      vertex 3.47231 -5.19668 0
      vertex 1.88894 -2.827 0
      vertex 2.15694 -2.62823 0
    endloop
  endfacet
  facet normal 0 0 -1
    outer loop
      vertex 1.30112 -3.14119 0
      vertex 2.39177 -5.77425 0
      vertex 1.81428 -5.98088 0
    endloop
  endfacet
  facet normal 0 0 -1
    outer loop
      vertex 2.94623 -5.51201 0
      vertex 1.60275 -2.99853 0
      vertex 1.88894 -2.827 0
    endloop
  endfacet
  facet normal 0 0 -1
    outer loop
      vertex 2.39177 -5.77425 0
      vertex 1.30112 -3.14119 0
      vertex 1.60275 -2.99853 0
    endloop
  endfacet
  facet normal 0 0 -1
    outer loop
      vertex 0.986967 -3.2536 0
      vertex 1.81428 -5.98088 0
      vertex 1.21931 -6.12991 0
    endloop
  endfacet
  facet normal 0 0 -1
    outer loop
      vertex 1.81428 -5.98088 0
      vertex 0.986967 -3.2536 0
      vertex 1.30112 -3.14119 0
    endloop
  endfacet
  facet normal 0 0 -1
    outer loop
      vertex 1.21931 -6.12991 0
      vertex 0.663306 -3.33467 0
      vertex 0.986967 -3.2536 0
    endloop
  endfacet
  facet normal 0 0 -1
    outer loop
      vertex 0.612607 -6.2199 0
      vertex 0.663306 -3.33467 0
      vertex 1.21931 -6.12991 0
    endloop
  endfacet
  facet normal 0 0 -1
    outer loop
      vertex 0.612607 -6.2199 0
      vertex 0.333258 -3.38363 0
      vertex 0.663306 -3.33467 0
    endloop
  endfacet
  facet normal 0 0 -1
    outer loop
      vertex 0 -6.25 0
      vertex 0.333258 -3.38363 0
      vertex 0.612607 -6.2199 0
    endloop
  endfacet
  facet normal 0 0 -1
    outer loop
      vertex 0 -6.25 0
      vertex 0 -3.4 0
      vertex 0.333258 -3.38363 0
    endloop
  endfacet
  facet normal 0 0 -1
    outer loop
      vertex 0 -6.25 0
      vertex -0.333258 -3.38363 0
      vertex 0 -3.4 0
    endloop
  endfacet
  facet normal 0 0 -1
    outer loop
      vertex -0.612607 -6.2199 0
      vertex -0.333258 -3.38363 0
      vertex 0 -6.25 0
    endloop
  endfacet
  facet normal 0 0 -1
    outer loop
      vertex -0.612607 -6.2199 0
      vertex -0.663306 -3.33467 0
      vertex -0.333258 -3.38363 0
    endloop
  endfacet
  facet normal 0 0 -1
    outer loop
      vertex -1.21931 -6.12991 0
      vertex -0.663306 -3.33467 0
      vertex -0.612607 -6.2199 0
    endloop
  endfacet
  facet normal -0 0 -1
    outer loop
      vertex -0.663306 -3.33467 0
      vertex -1.21931 -6.12991 0
      vertex -0.986967 -3.2536 0
    endloop
  endfacet
  facet normal 0 0 -1
    outer loop
      vertex -1.81428 -5.98088 0
      vertex -0.986967 -3.2536 0
      vertex -1.21931 -6.12991 0
    endloop
  endfacet
  facet normal -0 0 -1
    outer loop
      vertex -0.986967 -3.2536 0
      vertex -1.81428 -5.98088 0
      vertex -1.30112 -3.14119 0
    endloop
  endfacet
  facet normal 0 0 -1
    outer loop
      vertex -2.39177 -5.77425 0
      vertex -1.30112 -3.14119 0
      vertex -1.81428 -5.98088 0
    endloop
  endfacet
  facet normal -0 0 -1
    outer loop
      vertex -1.30112 -3.14119 0
      vertex -2.39177 -5.77425 0
      vertex -1.60275 -2.99853 0
    endloop
  endfacet
  facet normal 0 0 -1
    outer loop
      vertex -2.94623 -5.51201 0
      vertex -1.60275 -2.99853 0
      vertex -2.39177 -5.77425 0
    endloop
  endfacet
  facet normal -0 0 -1
    outer loop
      vertex -1.60275 -2.99853 0
      vertex -2.94623 -5.51201 0
      vertex -1.88894 -2.827 0
    endloop
  endfacet
  facet normal 0 0 -1
    outer loop
      vertex -3.47231 -5.19668 0
      vertex -1.88894 -2.827 0
      vertex -2.94623 -5.51201 0
    endloop
  endfacet
  facet normal -0 0 -1
    outer loop
      vertex -1.88894 -2.827 0
      vertex -3.47231 -5.19668 0
      vertex -2.15694 -2.62823 0
    endloop
  endfacet
  facet normal 0 0 -1
    outer loop
      vertex -3.96496 -4.83132 0
      vertex -2.15694 -2.62823 0
      vertex -3.47231 -5.19668 0
    endloop
  endfacet
  facet normal -0 0 -1
    outer loop
      vertex -2.15694 -2.62823 0
      vertex -3.96496 -4.83132 0
      vertex -2.40416 -2.40416 0
    endloop
  endfacet
  facet normal 0 0 -1
    outer loop
      vertex -4.41942 -4.41942 0
      vertex -2.40416 -2.40416 0
      vertex -3.96496 -4.83132 0
    endloop
  endfacet
  facet normal -0 0 -1
    outer loop
      vertex -2.40416 -2.40416 0
      vertex -4.41942 -4.41942 0
      vertex -2.62823 -2.15694 0
    endloop
  endfacet
  facet normal 0 0 -1
    outer loop
      vertex -4.83132 -3.96496 0
      vertex -2.62823 -2.15694 0
      vertex -4.41942 -4.41942 0
    endloop
  endfacet
  facet normal -0 0 -1
    outer loop
      vertex -2.62823 -2.15694 0
      vertex -4.83132 -3.96496 0
      vertex -2.827 -1.88894 0
    endloop
  endfacet
  facet normal 0 0 -1
    outer loop
      vertex -5.19668 -3.47231 0
      vertex -2.827 -1.88894 0
      vertex -4.83132 -3.96496 0
    endloop
  endfacet
  facet normal 0 0 -1
    outer loop
      vertex -5.51201 -2.94623 0
      vertex -2.99853 -1.60275 0
      vertex -5.19668 -3.47231 0
    endloop
  endfacet
  facet normal -0 0 -1
    outer loop
      vertex -2.827 -1.88894 0
      vertex -5.19668 -3.47231 0
      vertex -2.99853 -1.60275 0
    endloop
  endfacet
  facet normal -0 0 -1
    outer loop
      vertex 5.51201 2.94623 0
      vertex 2.99853 1.60275 0
      vertex 5.19668 3.47231 0
    endloop
  endfacet
  facet normal 0 0 -1
    outer loop
      vertex 2.827 1.88894 0
      vertex 5.19668 3.47231 0
      vertex 2.99853 1.60275 0
    endloop
  endfacet
  facet normal -0 0 -1
    outer loop
      vertex 5.19668 3.47231 0
      vertex 2.827 1.88894 0
      vertex 4.83132 3.96496 0
    endloop
  endfacet
  facet normal 0 0 -1
    outer loop
      vertex 2.62823 2.15694 0
      vertex 4.83132 3.96496 0
      vertex 2.827 1.88894 0
    endloop
  endfacet
  facet normal -0 0 -1
    outer loop
      vertex 4.83132 3.96496 0
      vertex 2.62823 2.15694 0
      vertex 4.41942 4.41942 0
    endloop
  endfacet
  facet normal 0 0 -1
    outer loop
      vertex 2.40416 2.40416 0
      vertex 4.41942 4.41942 0
      vertex 2.62823 2.15694 0
    endloop
  endfacet
  facet normal -0 0 -1
    outer loop
      vertex 4.41942 4.41942 0
      vertex 2.40416 2.40416 0
      vertex 3.96496 4.83132 0
    endloop
  endfacet
  facet normal 0 0 -1
    outer loop
      vertex 2.15694 2.62823 0
      vertex 3.96496 4.83132 0
      vertex 2.40416 2.40416 0
    endloop
  endfacet
  facet normal -0 0 -1
    outer loop
      vertex 3.96496 4.83132 0
      vertex 2.15694 2.62823 0
      vertex 3.47231 5.19668 0
    endloop
  endfacet
  facet normal 0 0 -1
    outer loop
      vertex 1.88894 2.827 0
      vertex 3.47231 5.19668 0
      vertex 2.15694 2.62823 0
    endloop
  endfacet
  facet normal -0 0 -1
    outer loop
      vertex 3.47231 5.19668 0
      vertex 1.88894 2.827 0
      vertex 2.94623 5.51201 0
    endloop
  endfacet
  facet normal 0 0 -1
    outer loop
      vertex 1.60275 2.99853 0
      vertex 2.94623 5.51201 0
      vertex 1.88894 2.827 0
    endloop
  endfacet
  facet normal -0 0 -1
    outer loop
      vertex 2.94623 5.51201 0
      vertex 1.60275 2.99853 0
      vertex 2.39177 5.77425 0
    endloop
  endfacet
  facet normal 0 0 -1
    outer loop
      vertex 1.30112 3.14119 0
      vertex 2.39177 5.77425 0
      vertex 1.60275 2.99853 0
    endloop
  endfacet
  facet normal -0 0 -1
    outer loop
      vertex 2.39177 5.77425 0
      vertex 1.30112 3.14119 0
      vertex 1.81428 5.98088 0
    endloop
  endfacet
  facet normal 0 0 -1
    outer loop
      vertex 0.986967 3.2536 0
      vertex 1.81428 5.98088 0
      vertex 1.30112 3.14119 0
    endloop
  endfacet
  facet normal -0 0 -1
    outer loop
      vertex 1.81428 5.98088 0
      vertex 0.986967 3.2536 0
      vertex 1.21931 6.12991 0
    endloop
  endfacet
  facet normal 0 0 -1
    outer loop
      vertex 0.663306 3.33467 0
      vertex 1.21931 6.12991 0
      vertex 0.986967 3.2536 0
    endloop
  endfacet
  facet normal 0 0 -1
    outer loop
      vertex 0.663306 3.33467 0
      vertex 0.612607 6.2199 0
      vertex 1.21931 6.12991 0
    endloop
  endfacet
  facet normal 0 0 -1
    outer loop
      vertex 0.333258 3.38363 0
      vertex 0.612607 6.2199 0
      vertex 0.663306 3.33467 0
    endloop
  endfacet
  facet normal 0 0 -1
    outer loop
      vertex 0 3.4 0
      vertex 0.612607 6.2199 0
      vertex 0.333258 3.38363 0
    endloop
  endfacet
  facet normal 0 0 -1
    outer loop
      vertex 0 3.4 0
      vertex 0 6.25 0
      vertex 0.612607 6.2199 0
    endloop
  endfacet
  facet normal 0 0 -1
    outer loop
      vertex -0.333258 3.38363 0
      vertex 0 6.25 0
      vertex 0 3.4 0
    endloop
  endfacet
  facet normal 0 0 -1
    outer loop
      vertex -0.333258 3.38363 0
      vertex -0.612607 6.2199 0
      vertex 0 6.25 0
    endloop
  endfacet
  facet normal 0 0 -1
    outer loop
      vertex -0.663306 3.33467 0
      vertex -0.612607 6.2199 0
      vertex -0.333258 3.38363 0
    endloop
  endfacet
  facet normal 0 0 -1
    outer loop
      vertex -1.21931 6.12991 0
      vertex -0.663306 3.33467 0
      vertex -0.986967 3.2536 0
    endloop
  endfacet
  facet normal 0 0 -1
    outer loop
      vertex -0.663306 3.33467 0
      vertex -1.21931 6.12991 0
      vertex -0.612607 6.2199 0
    endloop
  endfacet
  facet normal 0 0 -1
    outer loop
      vertex -1.81428 5.98088 0
      vertex -0.986967 3.2536 0
      vertex -1.30112 3.14119 0
    endloop
  endfacet
  facet normal 0 0 -1
    outer loop
      vertex -2.39177 5.77425 0
      vertex -1.30112 3.14119 0
      vertex -1.60275 2.99853 0
    endloop
  endfacet
  facet normal 0 0 -1
    outer loop
      vertex -0.986967 3.2536 0
      vertex -1.81428 5.98088 0
      vertex -1.21931 6.12991 0
    endloop
  endfacet
  facet normal 0 0 -1
    outer loop
      vertex -2.94623 5.51201 0
      vertex -1.60275 2.99853 0
      vertex -1.88894 2.827 0
    endloop
  endfacet
  facet normal 0 0 -1
    outer loop
      vertex -3.47231 5.19668 0
      vertex -1.88894 2.827 0
      vertex -2.15694 2.62823 0
    endloop
  endfacet
  facet normal 0 0 -1
    outer loop
      vertex -1.30112 3.14119 0
      vertex -2.39177 5.77425 0
      vertex -1.81428 5.98088 0
    endloop
  endfacet
  facet normal 0 0 -1
    outer loop
      vertex -3.96496 4.83132 0
      vertex -2.15694 2.62823 0
      vertex -2.40416 2.40416 0
    endloop
  endfacet
  facet normal 0 0 -1
    outer loop
      vertex -4.41942 4.41942 0
      vertex -2.40416 2.40416 0
      vertex -2.62823 2.15694 0
    endloop
  endfacet
  facet normal 0 0 -1
    outer loop
      vertex -4.83132 3.96496 0
      vertex -2.62823 2.15694 0
      vertex -2.827 1.88894 0
    endloop
  endfacet
  facet normal 0 0 -1
    outer loop
      vertex -1.60275 2.99853 0
      vertex -2.94623 5.51201 0
      vertex -2.39177 5.77425 0
    endloop
  endfacet
  facet normal 0 0 -1
    outer loop
      vertex -5.19668 3.47231 0
      vertex -2.827 1.88894 0
      vertex -2.99853 1.60275 0
    endloop
  endfacet
  facet normal 0 0 -1
    outer loop
      vertex -5.51201 2.94623 0
      vertex -2.99853 1.60275 0
      vertex -3.14119 1.30112 0
    endloop
  endfacet
  facet normal 0 0 -1
    outer loop
      vertex -5.77425 2.39177 0
      vertex -3.14119 1.30112 0
      vertex -3.2536 0.986967 0
    endloop
  endfacet
  facet normal 0 0 -1
    outer loop
      vertex -5.98088 1.81428 0
      vertex -3.2536 0.986967 0
      vertex -3.33467 0.663306 0
    endloop
  endfacet
  facet normal 0 0 -1
    outer loop
      vertex -6.12991 1.21931 0
      vertex -3.33467 0.663306 0
      vertex -3.38363 0.333258 0
    endloop
  endfacet
  facet normal 0 0 -1
    outer loop
      vertex -1.88894 2.827 0
      vertex -3.47231 5.19668 0
      vertex -2.94623 5.51201 0
    endloop
  endfacet
  facet normal 0 0 -1
    outer loop
      vertex -6.2199 0.612607 0
      vertex -3.38363 0.333258 0
      vertex -3.4 0 0
    endloop
  endfacet
  facet normal -0 0 -1
    outer loop
      vertex -2.99853 -1.60275 0
      vertex -5.51201 -2.94623 0
      vertex -3.14119 -1.30112 0
    endloop
  endfacet
  facet normal 0 0 -1
    outer loop
      vertex -5.77425 -2.39177 0
      vertex -3.14119 -1.30112 0
      vertex -5.51201 -2.94623 0
    endloop
  endfacet
  facet normal 0 0 -1
    outer loop
      vertex -2.15694 2.62823 0
      vertex -3.96496 4.83132 0
      vertex -3.47231 5.19668 0
    endloop
  endfacet
  facet normal -0 0 -1
    outer loop
      vertex -3.14119 -1.30112 0
      vertex -5.77425 -2.39177 0
      vertex -3.2536 -0.986967 0
    endloop
  endfacet
  facet normal 0 0 -1
    outer loop
      vertex -2.40416 2.40416 0
      vertex -4.41942 4.41942 0
      vertex -3.96496 4.83132 0
    endloop
  endfacet
  facet normal 0 0 -1
    outer loop
      vertex -5.98088 -1.81428 0
      vertex -3.2536 -0.986967 0
      vertex -5.77425 -2.39177 0
    endloop
  endfacet
  facet normal 0 0 -1
    outer loop
      vertex -2.62823 2.15694 0
      vertex -4.83132 3.96496 0
      vertex -4.41942 4.41942 0
    endloop
  endfacet
  facet normal -0 0 -1
    outer loop
      vertex -3.2536 -0.986967 0
      vertex -5.98088 -1.81428 0
      vertex -3.33467 -0.663306 0
    endloop
  endfacet
  facet normal 0 0 -1
    outer loop
      vertex -2.827 1.88894 0
      vertex -5.19668 3.47231 0
      vertex -4.83132 3.96496 0
    endloop
  endfacet
  facet normal 0 0 -1
    outer loop
      vertex -6.12991 -1.21931 0
      vertex -3.33467 -0.663306 0
      vertex -5.98088 -1.81428 0
    endloop
  endfacet
  facet normal 0 0 -1
    outer loop
      vertex -2.99853 1.60275 0
      vertex -5.51201 2.94623 0
      vertex -5.19668 3.47231 0
    endloop
  endfacet
  facet normal -0 0 -1
    outer loop
      vertex -3.33467 -0.663306 0
      vertex -6.12991 -1.21931 0
      vertex -3.38363 -0.333258 0
    endloop
  endfacet
  facet normal 0 0 -1
    outer loop
      vertex -3.14119 1.30112 0
      vertex -5.77425 2.39177 0
      vertex -5.51201 2.94623 0
    endloop
  endfacet
  facet normal 0 0 -1
    outer loop
      vertex -6.2199 -0.612607 0
      vertex -3.38363 -0.333258 0
      vertex -6.12991 -1.21931 0
    endloop
  endfacet
  facet normal 0 0 -1
    outer loop
      vertex -3.2536 0.986967 0
      vertex -5.98088 1.81428 0
      vertex -5.77425 2.39177 0
    endloop
  endfacet
  facet normal -0 0 -1
    outer loop
      vertex -3.38363 -0.333258 0
      vertex -6.2199 -0.612607 0
      vertex -3.4 0 0
    endloop
  endfacet
  facet normal 0 0 -1
    outer loop
      vertex -3.33467 0.663306 0
      vertex -6.12991 1.21931 0
      vertex -5.98088 1.81428 0
    endloop
  endfacet
  facet normal 0 0 -1
    outer loop
      vertex -6.25 0 0
      vertex -3.4 0 0
      vertex -6.2199 -0.612607 0
    endloop
  endfacet
  facet normal 0 0 -1
    outer loop
      vertex -3.38363 0.333258 0
      vertex -6.2199 0.612607 0
      vertex -6.12991 1.21931 0
    endloop
  endfacet
  facet normal 0 0 -1
    outer loop
      vertex -3.4 0 0
      vertex -6.25 0 0
      vertex -6.2199 0.612607 0
    endloop
  endfacet
  facet normal -0.67156 -0.74095 0
    outer loop
      vertex -4.41942 -4.41942 0
      vertex -3.96496 -4.83132 1.5
      vertex -4.41942 -4.41942 1.5
    endloop
  endfacet
  facet normal -0.67156 -0.74095 -0
    outer loop
      vertex -3.96496 -4.83132 1.5
      vertex -4.41942 -4.41942 0
      vertex -3.96496 -4.83132 0
    endloop
  endfacet
  facet normal -0.803219 0.595684 0
    outer loop
      vertex -5.19668 3.47231 0
      vertex -4.83132 3.96496 1.5
      vertex -4.83132 3.96496 0
    endloop
  endfacet
  facet normal -0.803219 0.595684 0
    outer loop
      vertex -4.83132 3.96496 1.5
      vertex -5.19668 3.47231 0
      vertex -5.19668 3.47231 1.5
    endloop
  endfacet
  facet normal -0.0490751 -0.998795 0
    outer loop
      vertex -0.612607 -6.2199 0
      vertex 0 -6.25 1.5
      vertex -0.612607 -6.2199 1.5
    endloop
  endfacet
  facet normal -0.0490751 -0.998795 -0
    outer loop
      vertex 0 -6.25 1.5
      vertex -0.612607 -6.2199 0
      vertex 0 -6.25 0
    endloop
  endfacet
  facet normal -0.146721 -0.989178 0
    outer loop
      vertex -1.21931 -6.12991 0
      vertex -0.612607 -6.2199 1.5
      vertex -1.21931 -6.12991 1.5
    endloop
  endfacet
  facet normal -0.146721 -0.989178 -0
    outer loop
      vertex -0.612607 -6.2199 1.5
      vertex -1.21931 -6.12991 0
      vertex -0.612607 -6.2199 0
    endloop
  endfacet
  facet normal -0.989178 0.146721 0
    outer loop
      vertex -6.2199 0.612607 0
      vertex -6.12991 1.21931 1.5
      vertex -6.12991 1.21931 0
    endloop
  endfacet
  facet normal -0.989178 0.146721 0
    outer loop
      vertex -6.12991 1.21931 1.5
      vertex -6.2199 0.612607 0
      vertex -6.2199 0.612607 1.5
    endloop
  endfacet
  facet normal -0.998795 0.0490751 0
    outer loop
      vertex -6.25 0 0
      vertex -6.2199 0.612607 1.5
      vertex -6.2199 0.612607 0
    endloop
  endfacet
  facet normal -0.998795 0.0490751 0
    outer loop
      vertex -6.2199 0.612607 1.5
      vertex -6.25 0 0
      vertex -6.25 0 1.5
    endloop
  endfacet
  facet normal -0.336891 -0.941544 0
    outer loop
      vertex -2.39177 -5.77425 0
      vertex -1.81428 -5.98088 1.5
      vertex -2.39177 -5.77425 1.5
    endloop
  endfacet
  facet normal -0.336891 -0.941544 -0
    outer loop
      vertex -1.81428 -5.98088 1.5
      vertex -2.39177 -5.77425 0
      vertex -1.81428 -5.98088 0
    endloop
  endfacet
  facet normal 0.67156 -0.74095 0
    outer loop
      vertex 3.96496 -4.83132 0
      vertex 4.41942 -4.41942 1.5
      vertex 3.96496 -4.83132 1.5
    endloop
  endfacet
  facet normal 0.67156 -0.74095 0
    outer loop
      vertex 4.41942 -4.41942 1.5
      vertex 3.96496 -4.83132 0
      vertex 4.41942 -4.41942 0
    endloop
  endfacet
  facet normal 0 0 1
    outer loop
      vertex 3.4 0 1.5
      vertex 6.25 0 1.5
      vertex 6.2199 0.612607 1.5
    endloop
  endfacet
  facet normal 0 0 1
    outer loop
      vertex 3.38363 0.333258 1.5
      vertex 6.2199 0.612607 1.5
      vertex 6.12991 1.21931 1.5
    endloop
  endfacet
  facet normal 0 0 1
    outer loop
      vertex 6.25 0 1.5
      vertex 3.4 0 1.5
      vertex 6.2199 -0.612607 1.5
    endloop
  endfacet
  facet normal 0 0 1
    outer loop
      vertex 3.33467 0.663306 1.5
      vertex 6.12991 1.21931 1.5
      vertex 5.98088 1.81428 1.5
    endloop
  endfacet
  facet normal -0 0 1
    outer loop
      vertex 3.38363 -0.333258 1.5
      vertex 6.2199 -0.612607 1.5
      vertex 3.4 0 1.5
    endloop
  endfacet
  facet normal 0 0 1
    outer loop
      vertex 3.2536 0.986967 1.5
      vertex 5.98088 1.81428 1.5
      vertex 5.77425 2.39177 1.5
    endloop
  endfacet
  facet normal 0 0 1
    outer loop
      vertex 6.2199 -0.612607 1.5
      vertex 3.38363 -0.333258 1.5
      vertex 6.12991 -1.21931 1.5
    endloop
  endfacet
  facet normal 0 0 1
    outer loop
      vertex 3.14119 1.30112 1.5
      vertex 5.77425 2.39177 1.5
      vertex 5.51201 2.94623 1.5
    endloop
  endfacet
  facet normal -0 0 1
    outer loop
      vertex 3.33467 -0.663306 1.5
      vertex 6.12991 -1.21931 1.5
      vertex 3.38363 -0.333258 1.5
    endloop
  endfacet
  facet normal 0 0 1
    outer loop
      vertex 2.99853 1.60275 1.5
      vertex 5.51201 2.94623 1.5
      vertex 5.19668 3.47231 1.5
    endloop
  endfacet
  facet normal 0 0 1
    outer loop
      vertex 6.12991 -1.21931 1.5
      vertex 3.33467 -0.663306 1.5
      vertex 5.98088 -1.81428 1.5
    endloop
  endfacet
  facet normal 0 0 1
    outer loop
      vertex 2.827 1.88894 1.5
      vertex 5.19668 3.47231 1.5
      vertex 4.83132 3.96496 1.5
    endloop
  endfacet
  facet normal -0 0 1
    outer loop
      vertex 3.2536 -0.986967 1.5
      vertex 5.98088 -1.81428 1.5
      vertex 3.33467 -0.663306 1.5
    endloop
  endfacet
  facet normal 0 0 1
    outer loop
      vertex 2.62823 2.15694 1.5
      vertex 4.83132 3.96496 1.5
      vertex 4.41942 4.41942 1.5
    endloop
  endfacet
  facet normal 0 0 1
    outer loop
      vertex 5.98088 -1.81428 1.5
      vertex 3.2536 -0.986967 1.5
      vertex 5.77425 -2.39177 1.5
    endloop
  endfacet
  facet normal 0 0 1
    outer loop
      vertex 2.40416 2.40416 1.5
      vertex 4.41942 4.41942 1.5
      vertex 3.96496 4.83132 1.5
    endloop
  endfacet
  facet normal -0 0 1
    outer loop
      vertex 3.14119 -1.30112 1.5
      vertex 5.77425 -2.39177 1.5
      vertex 3.2536 -0.986967 1.5
    endloop
  endfacet
  facet normal 0 0 1
    outer loop
      vertex 2.15694 2.62823 1.5
      vertex 3.96496 4.83132 1.5
      vertex 3.47231 5.19668 1.5
    endloop
  endfacet
  facet normal 0 0 1
    outer loop
      vertex 5.77425 -2.39177 1.5
      vertex 3.14119 -1.30112 1.5
      vertex 5.51201 -2.94623 1.5
    endloop
  endfacet
  facet normal -0 0 1
    outer loop
      vertex 2.99853 -1.60275 1.5
      vertex 5.51201 -2.94623 1.5
      vertex 3.14119 -1.30112 1.5
    endloop
  endfacet
  facet normal 0 0 1
    outer loop
      vertex 6.2199 0.612607 1.5
      vertex 3.38363 0.333258 1.5
      vertex 3.4 0 1.5
    endloop
  endfacet
  facet normal 0 0 1
    outer loop
      vertex 6.12991 1.21931 1.5
      vertex 3.33467 0.663306 1.5
      vertex 3.38363 0.333258 1.5
    endloop
  endfacet
  facet normal 0 0 1
    outer loop
      vertex 5.98088 1.81428 1.5
      vertex 3.2536 0.986967 1.5
      vertex 3.33467 0.663306 1.5
    endloop
  endfacet
  facet normal 0 0 1
    outer loop
      vertex 5.77425 2.39177 1.5
      vertex 3.14119 1.30112 1.5
      vertex 3.2536 0.986967 1.5
    endloop
  endfacet
  facet normal 0 0 1
    outer loop
      vertex 5.51201 2.94623 1.5
      vertex 2.99853 1.60275 1.5
      vertex 3.14119 1.30112 1.5
    endloop
  endfacet
  facet normal 0 0 1
    outer loop
      vertex 1.88894 2.827 1.5
      vertex 3.47231 5.19668 1.5
      vertex 2.94623 5.51201 1.5
    endloop
  endfacet
  facet normal 0 0 1
    outer loop
      vertex 5.19668 3.47231 1.5
      vertex 2.827 1.88894 1.5
      vertex 2.99853 1.60275 1.5
    endloop
  endfacet
  facet normal 0 0 1
    outer loop
      vertex 4.83132 3.96496 1.5
      vertex 2.62823 2.15694 1.5
      vertex 2.827 1.88894 1.5
    endloop
  endfacet
  facet normal 0 0 1
    outer loop
      vertex 4.41942 4.41942 1.5
      vertex 2.40416 2.40416 1.5
      vertex 2.62823 2.15694 1.5
    endloop
  endfacet
  facet normal 0 0 1
    outer loop
      vertex 1.60275 2.99853 1.5
      vertex 2.94623 5.51201 1.5
      vertex 2.39177 5.77425 1.5
    endloop
  endfacet
  facet normal 0 0 1
    outer loop
      vertex 3.96496 4.83132 1.5
      vertex 2.15694 2.62823 1.5
      vertex 2.40416 2.40416 1.5
    endloop
  endfacet
  facet normal 0 0 1
    outer loop
      vertex 3.47231 5.19668 1.5
      vertex 1.88894 2.827 1.5
      vertex 2.15694 2.62823 1.5
    endloop
  endfacet
  facet normal 0 0 1
    outer loop
      vertex 1.30112 3.14119 1.5
      vertex 2.39177 5.77425 1.5
      vertex 1.81428 5.98088 1.5
    endloop
  endfacet
  facet normal 0 0 1
    outer loop
      vertex 2.94623 5.51201 1.5
      vertex 1.60275 2.99853 1.5
      vertex 1.88894 2.827 1.5
    endloop
  endfacet
  facet normal 0 0 1
    outer loop
      vertex 2.39177 5.77425 1.5
      vertex 1.30112 3.14119 1.5
      vertex 1.60275 2.99853 1.5
    endloop
  endfacet
  facet normal 0 0 1
    outer loop
      vertex 0.986967 3.2536 1.5
      vertex 1.81428 5.98088 1.5
      vertex 1.21931 6.12991 1.5
    endloop
  endfacet
  facet normal 0 0 1
    outer loop
      vertex 1.81428 5.98088 1.5
      vertex 0.986967 3.2536 1.5
      vertex 1.30112 3.14119 1.5
    endloop
  endfacet
  facet normal 0 0 1
    outer loop
      vertex 1.21931 6.12991 1.5
      vertex 0.663306 3.33467 1.5
      vertex 0.986967 3.2536 1.5
    endloop
  endfacet
  facet normal 0 0 1
    outer loop
      vertex 0.612607 6.2199 1.5
      vertex 0.663306 3.33467 1.5
      vertex 1.21931 6.12991 1.5
    endloop
  endfacet
  facet normal 0 0 1
    outer loop
      vertex 0.612607 6.2199 1.5
      vertex 0.333258 3.38363 1.5
      vertex 0.663306 3.33467 1.5
    endloop
  endfacet
  facet normal 0 0 1
    outer loop
      vertex 0 6.25 1.5
      vertex 0.333258 3.38363 1.5
      vertex 0.612607 6.2199 1.5
    endloop
  endfacet
  facet normal 0 0 1
    outer loop
      vertex 0 6.25 1.5
      vertex 0 3.4 1.5
      vertex 0.333258 3.38363 1.5
    endloop
  endfacet
  facet normal 0 0 1
    outer loop
      vertex 0 6.25 1.5
      vertex -0.333258 3.38363 1.5
      vertex 0 3.4 1.5
    endloop
  endfacet
  facet normal -0 0 1
    outer loop
      vertex -0.612607 6.2199 1.5
      vertex -0.333258 3.38363 1.5
      vertex 0 6.25 1.5
    endloop
  endfacet
  facet normal 0 0 1
    outer loop
      vertex -0.612607 6.2199 1.5
      vertex -0.663306 3.33467 1.5
      vertex -0.333258 3.38363 1.5
    endloop
  endfacet
  facet normal -0 0 1
    outer loop
      vertex -1.21931 6.12991 1.5
      vertex -0.663306 3.33467 1.5
      vertex -0.612607 6.2199 1.5
    endloop
  endfacet
  facet normal 0 0 1
    outer loop
      vertex -0.663306 3.33467 1.5
      vertex -1.21931 6.12991 1.5
      vertex -0.986967 3.2536 1.5
    endloop
  endfacet
  facet normal -0 0 1
    outer loop
      vertex -1.81428 5.98088 1.5
      vertex -0.986967 3.2536 1.5
      vertex -1.21931 6.12991 1.5
    endloop
  endfacet
  facet normal 0 0 1
    outer loop
      vertex -0.986967 3.2536 1.5
      vertex -1.81428 5.98088 1.5
      vertex -1.30112 3.14119 1.5
    endloop
  endfacet
  facet normal -0 0 1
    outer loop
      vertex -2.39177 5.77425 1.5
      vertex -1.30112 3.14119 1.5
      vertex -1.81428 5.98088 1.5
    endloop
  endfacet
  facet normal 0 0 1
    outer loop
      vertex -1.30112 3.14119 1.5
      vertex -2.39177 5.77425 1.5
      vertex -1.60275 2.99853 1.5
    endloop
  endfacet
  facet normal -0 0 1
    outer loop
      vertex -2.94623 5.51201 1.5
      vertex -1.60275 2.99853 1.5
      vertex -2.39177 5.77425 1.5
    endloop
  endfacet
  facet normal 0 0 1
    outer loop
      vertex -1.60275 2.99853 1.5
      vertex -2.94623 5.51201 1.5
      vertex -1.88894 2.827 1.5
    endloop
  endfacet
  facet normal -0 0 1
    outer loop
      vertex -3.47231 5.19668 1.5
      vertex -1.88894 2.827 1.5
      vertex -2.94623 5.51201 1.5
    endloop
  endfacet
  facet normal 0 0 1
    outer loop
      vertex -1.88894 2.827 1.5
      vertex -3.47231 5.19668 1.5
      vertex -2.15694 2.62823 1.5
    endloop
  endfacet
  facet normal -0 0 1
    outer loop
      vertex -3.96496 4.83132 1.5
      vertex -2.15694 2.62823 1.5
      vertex -3.47231 5.19668 1.5
    endloop
  endfacet
  facet normal 0 0 1
    outer loop
      vertex -2.15694 2.62823 1.5
      vertex -3.96496 4.83132 1.5
      vertex -2.40416 2.40416 1.5
    endloop
  endfacet
  facet normal -0 0 1
    outer loop
      vertex -4.41942 4.41942 1.5
      vertex -2.40416 2.40416 1.5
      vertex -3.96496 4.83132 1.5
    endloop
  endfacet
  facet normal 0 0 1
    outer loop
      vertex -2.40416 2.40416 1.5
      vertex -4.41942 4.41942 1.5
      vertex -2.62823 2.15694 1.5
    endloop
  endfacet
  facet normal -0 0 1
    outer loop
      vertex -4.83132 3.96496 1.5
      vertex -2.62823 2.15694 1.5
      vertex -4.41942 4.41942 1.5
    endloop
  endfacet
  facet normal 0 0 1
    outer loop
      vertex -2.62823 2.15694 1.5
      vertex -4.83132 3.96496 1.5
      vertex -2.827 1.88894 1.5
    endloop
  endfacet
  facet normal -0 0 1
    outer loop
      vertex -5.19668 3.47231 1.5
      vertex -2.827 1.88894 1.5
      vertex -4.83132 3.96496 1.5
    endloop
  endfacet
  facet normal -0 0 1
    outer loop
      vertex -5.51201 2.94623 1.5
      vertex -2.99853 1.60275 1.5
      vertex -5.19668 3.47231 1.5
    endloop
  endfacet
  facet normal 0 0 1
    outer loop
      vertex -2.827 1.88894 1.5
      vertex -5.19668 3.47231 1.5
      vertex -2.99853 1.60275 1.5
    endloop
  endfacet
  facet normal 0 0 1
    outer loop
      vertex 5.51201 -2.94623 1.5
      vertex 2.99853 -1.60275 1.5
      vertex 5.19668 -3.47231 1.5
    endloop
  endfacet
  facet normal -0 0 1
    outer loop
      vertex 2.827 -1.88894 1.5
      vertex 5.19668 -3.47231 1.5
      vertex 2.99853 -1.60275 1.5
    endloop
  endfacet
  facet normal 0 0 1
    outer loop
      vertex 5.19668 -3.47231 1.5
      vertex 2.827 -1.88894 1.5
      vertex 4.83132 -3.96496 1.5
    endloop
  endfacet
  facet normal -0 0 1
    outer loop
      vertex 2.62823 -2.15694 1.5
      vertex 4.83132 -3.96496 1.5
      vertex 2.827 -1.88894 1.5
    endloop
  endfacet
  facet normal 0 0 1
    outer loop
      vertex 4.83132 -3.96496 1.5
      vertex 2.62823 -2.15694 1.5
      vertex 4.41942 -4.41942 1.5
    endloop
  endfacet
  facet normal -0 0 1
    outer loop
      vertex 2.40416 -2.40416 1.5
      vertex 4.41942 -4.41942 1.5
      vertex 2.62823 -2.15694 1.5
    endloop
  endfacet
  facet normal 0 0 1
    outer loop
      vertex 4.41942 -4.41942 1.5
      vertex 2.40416 -2.40416 1.5
      vertex 3.96496 -4.83132 1.5
    endloop
  endfacet
  facet normal -0 0 1
    outer loop
      vertex 2.15694 -2.62823 1.5
      vertex 3.96496 -4.83132 1.5
      vertex 2.40416 -2.40416 1.5
    endloop
  endfacet
  facet normal 0 0 1
    outer loop
      vertex 3.96496 -4.83132 1.5
      vertex 2.15694 -2.62823 1.5
      vertex 3.47231 -5.19668 1.5
    endloop
  endfacet
  facet normal -0 0 1
    outer loop
      vertex 1.88894 -2.827 1.5
      vertex 3.47231 -5.19668 1.5
      vertex 2.15694 -2.62823 1.5
    endloop
  endfacet
  facet normal 0 0 1
    outer loop
      vertex 3.47231 -5.19668 1.5
      vertex 1.88894 -2.827 1.5
      vertex 2.94623 -5.51201 1.5
    endloop
  endfacet
  facet normal -0 0 1
    outer loop
      vertex 1.60275 -2.99853 1.5
      vertex 2.94623 -5.51201 1.5
      vertex 1.88894 -2.827 1.5
    endloop
  endfacet
  facet normal 0 0 1
    outer loop
      vertex 2.94623 -5.51201 1.5
      vertex 1.60275 -2.99853 1.5
      vertex 2.39177 -5.77425 1.5
    endloop
  endfacet
  facet normal -0 0 1
    outer loop
      vertex 1.30112 -3.14119 1.5
      vertex 2.39177 -5.77425 1.5
      vertex 1.60275 -2.99853 1.5
    endloop
  endfacet
  facet normal 0 0 1
    outer loop
      vertex 2.39177 -5.77425 1.5
      vertex 1.30112 -3.14119 1.5
      vertex 1.81428 -5.98088 1.5
    endloop
  endfacet
  facet normal -0 0 1
    outer loop
      vertex 0.986967 -3.2536 1.5
      vertex 1.81428 -5.98088 1.5
      vertex 1.30112 -3.14119 1.5
    endloop
  endfacet
  facet normal 0 0 1
    outer loop
      vertex 1.81428 -5.98088 1.5
      vertex 0.986967 -3.2536 1.5
      vertex 1.21931 -6.12991 1.5
    endloop
  endfacet
  facet normal -0 0 1
    outer loop
      vertex 0.663306 -3.33467 1.5
      vertex 1.21931 -6.12991 1.5
      vertex 0.986967 -3.2536 1.5
    endloop
  endfacet
  facet normal 0 0 1
    outer loop
      vertex 0.663306 -3.33467 1.5
      vertex 0.612607 -6.2199 1.5
      vertex 1.21931 -6.12991 1.5
    endloop
  endfacet
  facet normal -0 0 1
    outer loop
      vertex 0.333258 -3.38363 1.5
      vertex 0.612607 -6.2199 1.5
      vertex 0.663306 -3.33467 1.5
    endloop
  endfacet
  facet normal -0 0 1
    outer loop
      vertex 0 -3.4 1.5
      vertex 0.612607 -6.2199 1.5
      vertex 0.333258 -3.38363 1.5
    endloop
  endfacet
  facet normal 0 0 1
    outer loop
      vertex 0 -3.4 1.5
      vertex 0 -6.25 1.5
      vertex 0.612607 -6.2199 1.5
    endloop
  endfacet
  facet normal 0 0 1
    outer loop
      vertex -0.333258 -3.38363 1.5
      vertex 0 -6.25 1.5
      vertex 0 -3.4 1.5
    endloop
  endfacet
  facet normal 0 0 1
    outer loop
      vertex -0.333258 -3.38363 1.5
      vertex -0.612607 -6.2199 1.5
      vertex 0 -6.25 1.5
    endloop
  endfacet
  facet normal 0 0 1
    outer loop
      vertex -0.663306 -3.33467 1.5
      vertex -0.612607 -6.2199 1.5
      vertex -0.333258 -3.38363 1.5
    endloop
  endfacet
  facet normal 0 0 1
    outer loop
      vertex -1.21931 -6.12991 1.5
      vertex -0.663306 -3.33467 1.5
      vertex -0.986967 -3.2536 1.5
    endloop
  endfacet
  facet normal 0 0 1
    outer loop
      vertex -0.663306 -3.33467 1.5
      vertex -1.21931 -6.12991 1.5
      vertex -0.612607 -6.2199 1.5
    endloop
  endfacet
  facet normal 0 0 1
    outer loop
      vertex -1.81428 -5.98088 1.5
      vertex -0.986967 -3.2536 1.5
      vertex -1.30112 -3.14119 1.5
    endloop
  endfacet
  facet normal 0 0 1
    outer loop
      vertex -2.39177 -5.77425 1.5
      vertex -1.30112 -3.14119 1.5
      vertex -1.60275 -2.99853 1.5
    endloop
  endfacet
  facet normal 0 0 1
    outer loop
      vertex -0.986967 -3.2536 1.5
      vertex -1.81428 -5.98088 1.5
      vertex -1.21931 -6.12991 1.5
    endloop
  endfacet
  facet normal 0 0 1
    outer loop
      vertex -2.94623 -5.51201 1.5
      vertex -1.60275 -2.99853 1.5
      vertex -1.88894 -2.827 1.5
    endloop
  endfacet
  facet normal 0 0 1
    outer loop
      vertex -3.47231 -5.19668 1.5
      vertex -1.88894 -2.827 1.5
      vertex -2.15694 -2.62823 1.5
    endloop
  endfacet
  facet normal 0 0 1
    outer loop
      vertex -1.30112 -3.14119 1.5
      vertex -2.39177 -5.77425 1.5
      vertex -1.81428 -5.98088 1.5
    endloop
  endfacet
  facet normal 0 0 1
    outer loop
      vertex -3.96496 -4.83132 1.5
      vertex -2.15694 -2.62823 1.5
      vertex -2.40416 -2.40416 1.5
    endloop
  endfacet
  facet normal 0 0 1
    outer loop
      vertex -4.41942 -4.41942 1.5
      vertex -2.40416 -2.40416 1.5
      vertex -2.62823 -2.15694 1.5
    endloop
  endfacet
  facet normal 0 0 1
    outer loop
      vertex -4.83132 -3.96496 1.5
      vertex -2.62823 -2.15694 1.5
      vertex -2.827 -1.88894 1.5
    endloop
  endfacet
  facet normal 0 0 1
    outer loop
      vertex -1.60275 -2.99853 1.5
      vertex -2.94623 -5.51201 1.5
      vertex -2.39177 -5.77425 1.5
    endloop
  endfacet
  facet normal 0 0 1
    outer loop
      vertex -5.19668 -3.47231 1.5
      vertex -2.827 -1.88894 1.5
      vertex -2.99853 -1.60275 1.5
    endloop
  endfacet
  facet normal 0 0 1
    outer loop
      vertex -5.51201 -2.94623 1.5
      vertex -2.99853 -1.60275 1.5
      vertex -3.14119 -1.30112 1.5
    endloop
  endfacet
  facet normal 0 0 1
    outer loop
      vertex -5.77425 -2.39177 1.5
      vertex -3.14119 -1.30112 1.5
      vertex -3.2536 -0.986967 1.5
    endloop
  endfacet
  facet normal 0 0 1
    outer loop
      vertex -5.98088 -1.81428 1.5
      vertex -3.2536 -0.986967 1.5
      vertex -3.33467 -0.663306 1.5
    endloop
  endfacet
  facet normal 0 0 1
    outer loop
      vertex -6.12991 -1.21931 1.5
      vertex -3.33467 -0.663306 1.5
      vertex -3.38363 -0.333258 1.5
    endloop
  endfacet
  facet normal 0 0 1
    outer loop
      vertex -1.88894 -2.827 1.5
      vertex -3.47231 -5.19668 1.5
      vertex -2.94623 -5.51201 1.5
    endloop
  endfacet
  facet normal 0 0 1
    outer loop
      vertex -6.2199 -0.612607 1.5
      vertex -3.38363 -0.333258 1.5
      vertex -3.4 0 1.5
    endloop
  endfacet
  facet normal 0 0 1
    outer loop
      vertex -2.99853 1.60275 1.5
      vertex -5.51201 2.94623 1.5
      vertex -3.14119 1.30112 1.5
    endloop
  endfacet
  facet normal -0 0 1
    outer loop
      vertex -5.77425 2.39177 1.5
      vertex -3.14119 1.30112 1.5
      vertex -5.51201 2.94623 1.5
    endloop
  endfacet
  facet normal 0 0 1
    outer loop
      vertex -2.15694 -2.62823 1.5
      vertex -3.96496 -4.83132 1.5
      vertex -3.47231 -5.19668 1.5
    endloop
  endfacet
  facet normal 0 0 1
    outer loop
      vertex -3.14119 1.30112 1.5
      vertex -5.77425 2.39177 1.5
      vertex -3.2536 0.986967 1.5
    endloop
  endfacet
  facet normal 0 0 1
    outer loop
      vertex -2.40416 -2.40416 1.5
      vertex -4.41942 -4.41942 1.5
      vertex -3.96496 -4.83132 1.5
    endloop
  endfacet
  facet normal -0 0 1
    outer loop
      vertex -5.98088 1.81428 1.5
      vertex -3.2536 0.986967 1.5
      vertex -5.77425 2.39177 1.5
    endloop
  endfacet
  facet normal 0 0 1
    outer loop
      vertex -2.62823 -2.15694 1.5
      vertex -4.83132 -3.96496 1.5
      vertex -4.41942 -4.41942 1.5
    endloop
  endfacet
  facet normal 0 0 1
    outer loop
      vertex -3.2536 0.986967 1.5
      vertex -5.98088 1.81428 1.5
      vertex -3.33467 0.663306 1.5
    endloop
  endfacet
  facet normal 0 0 1
    outer loop
      vertex -2.827 -1.88894 1.5
      vertex -5.19668 -3.47231 1.5
      vertex -4.83132 -3.96496 1.5
    endloop
  endfacet
  facet normal -0 0 1
    outer loop
      vertex -6.12991 1.21931 1.5
      vertex -3.33467 0.663306 1.5
      vertex -5.98088 1.81428 1.5
    endloop
  endfacet
  facet normal 0 0 1
    outer loop
      vertex -2.99853 -1.60275 1.5
      vertex -5.51201 -2.94623 1.5
      vertex -5.19668 -3.47231 1.5
    endloop
  endfacet
  facet normal 0 0 1
    outer loop
      vertex -3.33467 0.663306 1.5
      vertex -6.12991 1.21931 1.5
      vertex -3.38363 0.333258 1.5
    endloop
  endfacet
  facet normal 0 0 1
    outer loop
      vertex -3.14119 -1.30112 1.5
      vertex -5.77425 -2.39177 1.5
      vertex -5.51201 -2.94623 1.5
    endloop
  endfacet
  facet normal -0 0 1
    outer loop
      vertex -6.2199 0.612607 1.5
      vertex -3.38363 0.333258 1.5
      vertex -6.12991 1.21931 1.5
    endloop
  endfacet
  facet normal 0 0 1
    outer loop
      vertex -3.2536 -0.986967 1.5
      vertex -5.98088 -1.81428 1.5
      vertex -5.77425 -2.39177 1.5
    endloop
  endfacet
  facet normal 0 0 1
    outer loop
      vertex -3.38363 0.333258 1.5
      vertex -6.2199 0.612607 1.5
      vertex -3.4 0 1.5
    endloop
  endfacet
  facet normal 0 0 1
    outer loop
      vertex -3.33467 -0.663306 1.5
      vertex -6.12991 -1.21931 1.5
      vertex -5.98088 -1.81428 1.5
    endloop
  endfacet
  facet normal 0 0 1
    outer loop
      vertex -6.25 0 1.5
      vertex -3.4 0 1.5
      vertex -6.2199 0.612607 1.5
    endloop
  endfacet
  facet normal 0 0 1
    outer loop
      vertex -3.38363 -0.333258 1.5
      vertex -6.2199 -0.612607 1.5
      vertex -6.12991 -1.21931 1.5
    endloop
  endfacet
  facet normal 0 0 1
    outer loop
      vertex -3.4 0 1.5
      vertex -6.25 0 1.5
      vertex -6.2199 -0.612607 1.5
    endloop
  endfacet
  facet normal 0.336901 -0.94154 0
    outer loop
      vertex -1.30112 3.14119 0
      vertex -0.986967 3.2536 1.5
      vertex -1.30112 3.14119 1.5
    endloop
  endfacet
  facet normal 0.336901 -0.94154 0
    outer loop
      vertex -0.986967 3.2536 1.5
      vertex -1.30112 3.14119 0
      vertex -0.986967 3.2536 0
    endloop
  endfacet
  facet normal -0.989176 -0.146736 0
    outer loop
      vertex 3.38363 0.333258 0
      vertex 3.33467 0.663306 1.5
      vertex 3.33467 0.663306 0
    endloop
  endfacet
  facet normal -0.989176 -0.146736 0
    outer loop
      vertex 3.33467 0.663306 1.5
      vertex 3.38363 0.333258 0
      vertex 3.38363 0.333258 1.5
    endloop
  endfacet
  facet normal -0.998796 -0.0490619 0
    outer loop
      vertex 3.4 0 0
      vertex 3.38363 0.333258 1.5
      vertex 3.38363 0.333258 0
    endloop
  endfacet
  facet normal -0.998796 -0.0490619 0
    outer loop
      vertex 3.38363 0.333258 1.5
      vertex 3.4 0 0
      vertex 3.4 0 1.5
    endloop
  endfacet
  facet normal -0.970033 -0.242972 0
    outer loop
      vertex 3.33467 0.663306 0
      vertex 3.2536 0.986967 1.5
      vertex 3.2536 0.986967 0
    endloop
  endfacet
  facet normal -0.970033 -0.242972 0
    outer loop
      vertex 3.2536 0.986967 1.5
      vertex 3.33467 0.663306 0
      vertex 3.33467 0.663306 1.5
    endloop
  endfacet
  facet normal 0.51409 0.857736 -0
    outer loop
      vertex -1.60275 -2.99853 0
      vertex -1.88894 -2.827 1.5
      vertex -1.60275 -2.99853 1.5
    endloop
  endfacet
  facet normal 0.51409 0.857736 0
    outer loop
      vertex -1.88894 -2.827 1.5
      vertex -1.60275 -2.99853 0
      vertex -1.88894 -2.827 0
    endloop
  endfacet
  facet normal -0.90399 -0.427554 0
    outer loop
      vertex 3.14119 1.30112 0
      vertex 2.99853 1.60275 1.5
      vertex 2.99853 1.60275 0
    endloop
  endfacet
  facet normal -0.90399 -0.427554 0
    outer loop
      vertex 2.99853 1.60275 1.5
      vertex 3.14119 1.30112 0
      vertex 3.14119 1.30112 1.5
    endloop
  endfacet
  facet normal -0.998796 0.0490619 0
    outer loop
      vertex 3.38363 -0.333258 0
      vertex 3.4 0 1.5
      vertex 3.4 0 0
    endloop
  endfacet
  facet normal -0.998796 0.0490619 0
    outer loop
      vertex 3.4 0 1.5
      vertex 3.38363 -0.333258 0
      vertex 3.38363 -0.333258 1.5
    endloop
  endfacet
  facet normal 0.90399 -0.427554 0
    outer loop
      vertex -3.14119 1.30112 1.5
      vertex -2.99853 1.60275 0
      vertex -2.99853 1.60275 1.5
    endloop
  endfacet
  facet normal 0.90399 -0.427554 0
    outer loop
      vertex -2.99853 1.60275 0
      vertex -3.14119 1.30112 1.5
      vertex -3.14119 1.30112 0
    endloop
  endfacet
  facet normal 0.242972 0.970033 -0
    outer loop
      vertex -0.663306 -3.33467 0
      vertex -0.986967 -3.2536 1.5
      vertex -0.663306 -3.33467 1.5
    endloop
  endfacet
  facet normal 0.242972 0.970033 0
    outer loop
      vertex -0.986967 -3.2536 1.5
      vertex -0.663306 -3.33467 0
      vertex -0.986967 -3.2536 0
    endloop
  endfacet
  facet normal 0.427554 0.90399 -0
    outer loop
      vertex -1.30112 -3.14119 0
      vertex -1.60275 -2.99853 1.5
      vertex -1.30112 -3.14119 1.5
    endloop
  endfacet
  facet normal 0.427554 0.90399 0
    outer loop
      vertex -1.60275 -2.99853 1.5
      vertex -1.30112 -3.14119 0
      vertex -1.60275 -2.99853 0
    endloop
  endfacet
  facet normal -0.803197 0.595714 0
    outer loop
      vertex 2.62823 -2.15694 0
      vertex 2.827 -1.88894 1.5
      vertex 2.827 -1.88894 0
    endloop
  endfacet
  facet normal -0.803197 0.595714 0
    outer loop
      vertex 2.827 -1.88894 1.5
      vertex 2.62823 -2.15694 0
      vertex 2.62823 -2.15694 1.5
    endloop
  endfacet
  facet normal 0.857736 -0.51409 0
    outer loop
      vertex -2.99853 1.60275 1.5
      vertex -2.827 1.88894 0
      vertex -2.827 1.88894 1.5
    endloop
  endfacet
  facet normal 0.857736 -0.51409 0
    outer loop
      vertex -2.827 1.88894 0
      vertex -2.99853 1.60275 1.5
      vertex -2.99853 1.60275 0
    endloop
  endfacet
  facet normal 0.336901 0.94154 -0
    outer loop
      vertex -0.986967 -3.2536 0
      vertex -1.30112 -3.14119 1.5
      vertex -0.986967 -3.2536 1.5
    endloop
  endfacet
  facet normal 0.336901 0.94154 0
    outer loop
      vertex -1.30112 -3.14119 1.5
      vertex -0.986967 -3.2536 0
      vertex -1.30112 -3.14119 0
    endloop
  endfacet
  facet normal 0.0490619 -0.998796 0
    outer loop
      vertex -0.333258 3.38363 0
      vertex 0 3.4 1.5
      vertex -0.333258 3.38363 1.5
    endloop
  endfacet
  facet normal 0.0490619 -0.998796 0
    outer loop
      vertex 0 3.4 1.5
      vertex -0.333258 3.38363 0
      vertex 0 3.4 0
    endloop
  endfacet
  facet normal 0.146736 0.989176 -0
    outer loop
      vertex -0.333258 -3.38363 0
      vertex -0.663306 -3.33467 1.5
      vertex -0.333258 -3.38363 1.5
    endloop
  endfacet
  facet normal 0.146736 0.989176 0
    outer loop
      vertex -0.663306 -3.33467 1.5
      vertex -0.333258 -3.38363 0
      vertex -0.663306 -3.33467 0
    endloop
  endfacet
  facet normal 0.803197 -0.595714 0
    outer loop
      vertex -2.827 1.88894 1.5
      vertex -2.62823 2.15694 0
      vertex -2.62823 2.15694 1.5
    endloop
  endfacet
  facet normal 0.803197 -0.595714 0
    outer loop
      vertex -2.62823 2.15694 0
      vertex -2.827 1.88894 1.5
      vertex -2.827 1.88894 0
    endloop
  endfacet
  facet normal 0.740947 0.671564 0
    outer loop
      vertex -2.40416 -2.40416 1.5
      vertex -2.62823 -2.15694 0
      vertex -2.62823 -2.15694 1.5
    endloop
  endfacet
  facet normal 0.740947 0.671564 0
    outer loop
      vertex -2.62823 -2.15694 0
      vertex -2.40416 -2.40416 1.5
      vertex -2.40416 -2.40416 0
    endloop
  endfacet
  facet normal 0.146736 -0.989176 0
    outer loop
      vertex -0.663306 3.33467 0
      vertex -0.333258 3.38363 1.5
      vertex -0.663306 3.33467 1.5
    endloop
  endfacet
  facet normal 0.146736 -0.989176 0
    outer loop
      vertex -0.333258 3.38363 1.5
      vertex -0.663306 3.33467 0
      vertex -0.333258 3.38363 0
    endloop
  endfacet
  facet normal 0.242972 -0.970033 0
    outer loop
      vertex -0.986967 3.2536 0
      vertex -0.663306 3.33467 1.5
      vertex -0.986967 3.2536 1.5
    endloop
  endfacet
  facet normal 0.242972 -0.970033 0
    outer loop
      vertex -0.663306 3.33467 1.5
      vertex -0.986967 3.2536 0
      vertex -0.663306 3.33467 0
    endloop
  endfacet
  facet normal -0.242972 -0.970033 0
    outer loop
      vertex 0.663306 3.33467 0
      vertex 0.986967 3.2536 1.5
      vertex 0.663306 3.33467 1.5
    endloop
  endfacet
  facet normal -0.242972 -0.970033 -0
    outer loop
      vertex 0.986967 3.2536 1.5
      vertex 0.663306 3.33467 0
      vertex 0.986967 3.2536 0
    endloop
  endfacet
  facet normal 0.51409 -0.857736 0
    outer loop
      vertex -1.88894 2.827 0
      vertex -1.60275 2.99853 1.5
      vertex -1.88894 2.827 1.5
    endloop
  endfacet
  facet normal 0.51409 -0.857736 0
    outer loop
      vertex -1.60275 2.99853 1.5
      vertex -1.88894 2.827 0
      vertex -1.60275 2.99853 0
    endloop
  endfacet
  facet normal -0.0490619 0.998796 0
    outer loop
      vertex 0.333258 -3.38363 0
      vertex 0 -3.4 1.5
      vertex 0.333258 -3.38363 1.5
    endloop
  endfacet
  facet normal -0.0490619 0.998796 0
    outer loop
      vertex 0 -3.4 1.5
      vertex 0.333258 -3.38363 0
      vertex 0 -3.4 0
    endloop
  endfacet
  facet normal -0.427554 -0.90399 0
    outer loop
      vertex 1.30112 3.14119 0
      vertex 1.60275 2.99853 1.5
      vertex 1.30112 3.14119 1.5
    endloop
  endfacet
  facet normal -0.427554 -0.90399 -0
    outer loop
      vertex 1.60275 2.99853 1.5
      vertex 1.30112 3.14119 0
      vertex 1.60275 2.99853 0
    endloop
  endfacet
  facet normal -0.740947 0.671564 0
    outer loop
      vertex 2.40416 -2.40416 0
      vertex 2.62823 -2.15694 1.5
      vertex 2.62823 -2.15694 0
    endloop
  endfacet
  facet normal -0.740947 0.671564 0
    outer loop
      vertex 2.62823 -2.15694 1.5
      vertex 2.40416 -2.40416 0
      vertex 2.40416 -2.40416 1.5
    endloop
  endfacet
  facet normal 0.989176 -0.146736 0
    outer loop
      vertex -3.38363 0.333258 1.5
      vertex -3.33467 0.663306 0
      vertex -3.33467 0.663306 1.5
    endloop
  endfacet
  facet normal 0.989176 -0.146736 0
    outer loop
      vertex -3.33467 0.663306 0
      vertex -3.38363 0.333258 1.5
      vertex -3.38363 0.333258 0
    endloop
  endfacet
  facet normal -0.146736 0.989176 0
    outer loop
      vertex 0.663306 -3.33467 0
      vertex 0.333258 -3.38363 1.5
      vertex 0.663306 -3.33467 1.5
    endloop
  endfacet
  facet normal -0.146736 0.989176 0
    outer loop
      vertex 0.333258 -3.38363 1.5
      vertex 0.663306 -3.33467 0
      vertex 0.333258 -3.38363 0
    endloop
  endfacet
  facet normal 0.671564 -0.740947 0
    outer loop
      vertex -2.40416 2.40416 0
      vertex -2.15694 2.62823 1.5
      vertex -2.40416 2.40416 1.5
    endloop
  endfacet
  facet normal 0.671564 -0.740947 0
    outer loop
      vertex -2.15694 2.62823 1.5
      vertex -2.40416 2.40416 0
      vertex -2.15694 2.62823 0
    endloop
  endfacet
  facet normal -0.94154 -0.336901 0
    outer loop
      vertex 3.2536 0.986967 0
      vertex 3.14119 1.30112 1.5
      vertex 3.14119 1.30112 0
    endloop
  endfacet
  facet normal -0.94154 -0.336901 0
    outer loop
      vertex 3.14119 1.30112 1.5
      vertex 3.2536 0.986967 0
      vertex 3.2536 0.986967 1.5
    endloop
  endfacet
  facet normal -0.803197 -0.595714 0
    outer loop
      vertex 2.827 1.88894 0
      vertex 2.62823 2.15694 1.5
      vertex 2.62823 2.15694 0
    endloop
  endfacet
  facet normal -0.803197 -0.595714 0
    outer loop
      vertex 2.62823 2.15694 1.5
      vertex 2.827 1.88894 0
      vertex 2.827 1.88894 1.5
    endloop
  endfacet
  facet normal -0.51409 0.857736 0
    outer loop
      vertex 1.88894 -2.827 0
      vertex 1.60275 -2.99853 1.5
      vertex 1.88894 -2.827 1.5
    endloop
  endfacet
  facet normal -0.51409 0.857736 0
    outer loop
      vertex 1.60275 -2.99853 1.5
      vertex 1.88894 -2.827 0
      vertex 1.60275 -2.99853 0
    endloop
  endfacet
  facet normal 0.94154 0.336901 0
    outer loop
      vertex -3.14119 -1.30112 1.5
      vertex -3.2536 -0.986967 0
      vertex -3.2536 -0.986967 1.5
    endloop
  endfacet
  facet normal 0.94154 0.336901 0
    outer loop
      vertex -3.2536 -0.986967 0
      vertex -3.14119 -1.30112 1.5
      vertex -3.14119 -1.30112 0
    endloop
  endfacet
  facet normal -0.94154 0.336901 0
    outer loop
      vertex 3.14119 -1.30112 0
      vertex 3.2536 -0.986967 1.5
      vertex 3.2536 -0.986967 0
    endloop
  endfacet
  facet normal -0.94154 0.336901 0
    outer loop
      vertex 3.2536 -0.986967 1.5
      vertex 3.14119 -1.30112 0
      vertex 3.14119 -1.30112 1.5
    endloop
  endfacet
  facet normal -0.0490619 -0.998796 0
    outer loop
      vertex 0 3.4 0
      vertex 0.333258 3.38363 1.5
      vertex 0 3.4 1.5
    endloop
  endfacet
  facet normal -0.0490619 -0.998796 -0
    outer loop
      vertex 0.333258 3.38363 1.5
      vertex 0 3.4 0
      vertex 0.333258 3.38363 0
    endloop
  endfacet
  facet normal -0.857736 0.51409 0
    outer loop
      vertex 2.827 -1.88894 0
      vertex 2.99853 -1.60275 1.5
      vertex 2.99853 -1.60275 0
    endloop
  endfacet
  facet normal -0.857736 0.51409 0
    outer loop
      vertex 2.99853 -1.60275 1.5
      vertex 2.827 -1.88894 0
      vertex 2.827 -1.88894 1.5
    endloop
  endfacet
  facet normal 0.803197 0.595714 0
    outer loop
      vertex -2.62823 -2.15694 1.5
      vertex -2.827 -1.88894 0
      vertex -2.827 -1.88894 1.5
    endloop
  endfacet
  facet normal 0.803197 0.595714 0
    outer loop
      vertex -2.827 -1.88894 0
      vertex -2.62823 -2.15694 1.5
      vertex -2.62823 -2.15694 0
    endloop
  endfacet
  facet normal -0.242972 0.970033 0
    outer loop
      vertex 0.986967 -3.2536 0
      vertex 0.663306 -3.33467 1.5
      vertex 0.986967 -3.2536 1.5
    endloop
  endfacet
  facet normal -0.242972 0.970033 0
    outer loop
      vertex 0.663306 -3.33467 1.5
      vertex 0.986967 -3.2536 0
      vertex 0.663306 -3.33467 0
    endloop
  endfacet
  facet normal -0.671564 -0.740947 0
    outer loop
      vertex 2.15694 2.62823 0
      vertex 2.40416 2.40416 1.5
      vertex 2.15694 2.62823 1.5
    endloop
  endfacet
  facet normal -0.671564 -0.740947 -0
    outer loop
      vertex 2.40416 2.40416 1.5
      vertex 2.15694 2.62823 0
      vertex 2.40416 2.40416 0
    endloop
  endfacet
  facet normal -0.740947 -0.671564 0
    outer loop
      vertex 2.62823 2.15694 0
      vertex 2.40416 2.40416 1.5
      vertex 2.40416 2.40416 0
    endloop
  endfacet
  facet normal -0.740947 -0.671564 0
    outer loop
      vertex 2.40416 2.40416 1.5
      vertex 2.62823 2.15694 0
      vertex 2.62823 2.15694 1.5
    endloop
  endfacet
  facet normal -0.595714 -0.803197 0
    outer loop
      vertex 1.88894 2.827 0
      vertex 2.15694 2.62823 1.5
      vertex 1.88894 2.827 1.5
    endloop
  endfacet
  facet normal -0.595714 -0.803197 -0
    outer loop
      vertex 2.15694 2.62823 1.5
      vertex 1.88894 2.827 0
      vertex 2.15694 2.62823 0
    endloop
  endfacet
  facet normal 0.970033 -0.242972 0
    outer loop
      vertex -3.33467 0.663306 1.5
      vertex -3.2536 0.986967 0
      vertex -3.2536 0.986967 1.5
    endloop
  endfacet
  facet normal 0.970033 -0.242972 0
    outer loop
      vertex -3.2536 0.986967 0
      vertex -3.33467 0.663306 1.5
      vertex -3.33467 0.663306 0
    endloop
  endfacet
  facet normal -0.51409 -0.857736 0
    outer loop
      vertex 1.60275 2.99853 0
      vertex 1.88894 2.827 1.5
      vertex 1.60275 2.99853 1.5
    endloop
  endfacet
  facet normal -0.51409 -0.857736 -0
    outer loop
      vertex 1.88894 2.827 1.5
      vertex 1.60275 2.99853 0
      vertex 1.88894 2.827 0
    endloop
  endfacet
  facet normal 0.427554 -0.90399 0
    outer loop
      vertex -1.60275 2.99853 0
      vertex -1.30112 3.14119 1.5
      vertex -1.60275 2.99853 1.5
    endloop
  endfacet
  facet normal 0.427554 -0.90399 0
    outer loop
      vertex -1.30112 3.14119 1.5
      vertex -1.60275 2.99853 0
      vertex -1.30112 3.14119 0
    endloop
  endfacet
  facet normal -0.970033 0.242972 0
    outer loop
      vertex 3.2536 -0.986967 0
      vertex 3.33467 -0.663306 1.5
      vertex 3.33467 -0.663306 0
    endloop
  endfacet
  facet normal -0.970033 0.242972 0
    outer loop
      vertex 3.33467 -0.663306 1.5
      vertex 3.2536 -0.986967 0
      vertex 3.2536 -0.986967 1.5
    endloop
  endfacet
  facet normal -0.336901 -0.94154 0
    outer loop
      vertex 0.986967 3.2536 0
      vertex 1.30112 3.14119 1.5
      vertex 0.986967 3.2536 1.5
    endloop
  endfacet
  facet normal -0.336901 -0.94154 -0
    outer loop
      vertex 1.30112 3.14119 1.5
      vertex 0.986967 3.2536 0
      vertex 1.30112 3.14119 0
    endloop
  endfacet
  facet normal -0.989176 0.146736 0
    outer loop
      vertex 3.33467 -0.663306 0
      vertex 3.38363 -0.333258 1.5
      vertex 3.38363 -0.333258 0
    endloop
  endfacet
  facet normal -0.989176 0.146736 0
    outer loop
      vertex 3.38363 -0.333258 1.5
      vertex 3.33467 -0.663306 0
      vertex 3.33467 -0.663306 1.5
    endloop
  endfacet
  facet normal 0.989176 0.146736 0
    outer loop
      vertex -3.33467 -0.663306 1.5
      vertex -3.38363 -0.333258 0
      vertex -3.38363 -0.333258 1.5
    endloop
  endfacet
  facet normal 0.989176 0.146736 0
    outer loop
      vertex -3.38363 -0.333258 0
      vertex -3.33467 -0.663306 1.5
      vertex -3.33467 -0.663306 0
    endloop
  endfacet
  facet normal -0.857736 -0.51409 0
    outer loop
      vertex 2.99853 1.60275 0
      vertex 2.827 1.88894 1.5
      vertex 2.827 1.88894 0
    endloop
  endfacet
  facet normal -0.857736 -0.51409 0
    outer loop
      vertex 2.827 1.88894 1.5
      vertex 2.99853 1.60275 0
      vertex 2.99853 1.60275 1.5
    endloop
  endfacet
  facet normal 0.94154 -0.336901 0
    outer loop
      vertex -3.2536 0.986967 1.5
      vertex -3.14119 1.30112 0
      vertex -3.14119 1.30112 1.5
    endloop
  endfacet
  facet normal 0.94154 -0.336901 0
    outer loop
      vertex -3.14119 1.30112 0
      vertex -3.2536 0.986967 1.5
      vertex -3.2536 0.986967 0
    endloop
  endfacet
  facet normal 0.0490619 0.998796 -0
    outer loop
      vertex 0 -3.4 0
      vertex -0.333258 -3.38363 1.5
      vertex 0 -3.4 1.5
    endloop
  endfacet
  facet normal 0.0490619 0.998796 0
    outer loop
      vertex -0.333258 -3.38363 1.5
      vertex 0 -3.4 0
      vertex -0.333258 -3.38363 0
    endloop
  endfacet
  facet normal 0.970033 0.242972 0
    outer loop
      vertex -3.2536 -0.986967 1.5
      vertex -3.33467 -0.663306 0
      vertex -3.33467 -0.663306 1.5
    endloop
  endfacet
  facet normal 0.970033 0.242972 0
    outer loop
      vertex -3.33467 -0.663306 0
      vertex -3.2536 -0.986967 1.5
      vertex -3.2536 -0.986967 0
    endloop
  endfacet
  facet normal 0.90399 0.427554 0
    outer loop
      vertex -2.99853 -1.60275 1.5
      vertex -3.14119 -1.30112 0
      vertex -3.14119 -1.30112 1.5
    endloop
  endfacet
  facet normal 0.90399 0.427554 0
    outer loop
      vertex -3.14119 -1.30112 0
      vertex -2.99853 -1.60275 1.5
      vertex -2.99853 -1.60275 0
    endloop
  endfacet
  facet normal 0.857736 0.51409 0
    outer loop
      vertex -2.827 -1.88894 1.5
      vertex -2.99853 -1.60275 0
      vertex -2.99853 -1.60275 1.5
    endloop
  endfacet
  facet normal 0.857736 0.51409 0
    outer loop
      vertex -2.99853 -1.60275 0
      vertex -2.827 -1.88894 1.5
      vertex -2.827 -1.88894 0
    endloop
  endfacet
  facet normal 0.595714 0.803197 -0
    outer loop
      vertex -1.88894 -2.827 0
      vertex -2.15694 -2.62823 1.5
      vertex -1.88894 -2.827 1.5
    endloop
  endfacet
  facet normal 0.595714 0.803197 0
    outer loop
      vertex -2.15694 -2.62823 1.5
      vertex -1.88894 -2.827 0
      vertex -2.15694 -2.62823 0
    endloop
  endfacet
  facet normal 0.740947 -0.671564 0
    outer loop
      vertex -2.62823 2.15694 1.5
      vertex -2.40416 2.40416 0
      vertex -2.40416 2.40416 1.5
    endloop
  endfacet
  facet normal 0.740947 -0.671564 0
    outer loop
      vertex -2.40416 2.40416 0
      vertex -2.62823 2.15694 1.5
      vertex -2.62823 2.15694 0
    endloop
  endfacet
  facet normal -0.595714 0.803197 0
    outer loop
      vertex 2.15694 -2.62823 0
      vertex 1.88894 -2.827 1.5
      vertex 2.15694 -2.62823 1.5
    endloop
  endfacet
  facet normal -0.595714 0.803197 0
    outer loop
      vertex 1.88894 -2.827 1.5
      vertex 2.15694 -2.62823 0
      vertex 1.88894 -2.827 0
    endloop
  endfacet
  facet normal -0.90399 0.427554 0
    outer loop
      vertex 2.99853 -1.60275 0
      vertex 3.14119 -1.30112 1.5
      vertex 3.14119 -1.30112 0
    endloop
  endfacet
  facet normal -0.90399 0.427554 0
    outer loop
      vertex 3.14119 -1.30112 1.5
      vertex 2.99853 -1.60275 0
      vertex 2.99853 -1.60275 1.5
    endloop
  endfacet
  facet normal 0.998796 0.0490619 0
    outer loop
      vertex -3.38363 -0.333258 1.5
      vertex -3.4 0 0
      vertex -3.4 0 1.5
    endloop
  endfacet
  facet normal 0.998796 0.0490619 0
    outer loop
      vertex -3.4 0 0
      vertex -3.38363 -0.333258 1.5
      vertex -3.38363 -0.333258 0
    endloop
  endfacet
  facet normal 0.595714 -0.803197 0
    outer loop
      vertex -2.15694 2.62823 0
      vertex -1.88894 2.827 1.5
      vertex -2.15694 2.62823 1.5
    endloop
  endfacet
  facet normal 0.595714 -0.803197 0
    outer loop
      vertex -1.88894 2.827 1.5
      vertex -2.15694 2.62823 0
      vertex -1.88894 2.827 0
    endloop
  endfacet
  facet normal -0.427554 0.90399 0
    outer loop
      vertex 1.60275 -2.99853 0
      vertex 1.30112 -3.14119 1.5
      vertex 1.60275 -2.99853 1.5
    endloop
  endfacet
  facet normal -0.427554 0.90399 0
    outer loop
      vertex 1.30112 -3.14119 1.5
      vertex 1.60275 -2.99853 0
      vertex 1.30112 -3.14119 0
    endloop
  endfacet
  facet normal -0.336901 0.94154 0
    outer loop
      vertex 1.30112 -3.14119 0
      vertex 0.986967 -3.2536 1.5
      vertex 1.30112 -3.14119 1.5
    endloop
  endfacet
  facet normal -0.336901 0.94154 0
    outer loop
      vertex 0.986967 -3.2536 1.5
      vertex 1.30112 -3.14119 0
      vertex 0.986967 -3.2536 0
    endloop
  endfacet
  facet normal -0.671564 0.740947 0
    outer loop
      vertex 2.40416 -2.40416 0
      vertex 2.15694 -2.62823 1.5
      vertex 2.40416 -2.40416 1.5
    endloop
  endfacet
  facet normal -0.671564 0.740947 0
    outer loop
      vertex 2.15694 -2.62823 1.5
      vertex 2.40416 -2.40416 0
      vertex 2.15694 -2.62823 0
    endloop
  endfacet
  facet normal 0.998796 -0.0490619 0
    outer loop
      vertex -3.4 0 1.5
      vertex -3.38363 0.333258 0
      vertex -3.38363 0.333258 1.5
    endloop
  endfacet
  facet normal 0.998796 -0.0490619 0
    outer loop
      vertex -3.38363 0.333258 0
      vertex -3.4 0 1.5
      vertex -3.4 0 0
    endloop
  endfacet
  facet normal 0.671564 0.740947 -0
    outer loop
      vertex -2.15694 -2.62823 0
      vertex -2.40416 -2.40416 1.5
      vertex -2.15694 -2.62823 1.5
    endloop
  endfacet
  facet normal 0.671564 0.740947 0
    outer loop
      vertex -2.40416 -2.40416 1.5
      vertex -2.15694 -2.62823 0
      vertex -2.40416 -2.40416 0
    endloop
  endfacet
  facet normal -0.146736 -0.989176 0
    outer loop
      vertex 0.333258 3.38363 0
      vertex 0.663306 3.33467 1.5
      vertex 0.333258 3.38363 1.5
    endloop
  endfacet
  facet normal -0.146736 -0.989176 -0
    outer loop
      vertex 0.663306 3.33467 1.5
      vertex 0.333258 3.38363 0
      vertex 0.663306 3.33467 0
    endloop
  endfacet
endsolid OpenSCAD_Model
