solid OpenSCAD_Model
  facet normal 1 0 0
    outer loop
      vertex 40 0 10
      vertex 40 -4 10
      vertex 40 0 3
    endloop
  endfacet
  facet normal 1 0 0
    outer loop
      vertex 40 25.2 3
      vertex 40 29.2 10
      vertex 40 25.2 10
    endloop
  endfacet
  facet normal 1 0 0
    outer loop
      vertex 40 29.2 10
      vertex 40 25.2 3
      vertex 40 29.2 0
    endloop
  endfacet
  facet normal 1 -0 0
    outer loop
      vertex 40 0 3
      vertex 40 29.2 0
      vertex 40 25.2 3
    endloop
  endfacet
  facet normal 1 0 0
    outer loop
      vertex 40 0 3
      vertex 40 -4 0
      vertex 40 29.2 0
    endloop
  endfacet
  facet normal 1 0 0
    outer loop
      vertex 40 -4 0
      vertex 40 0 3
      vertex 40 -4 10
    endloop
  endfacet
  facet normal 0 0 1
    outer loop
      vertex -5 25.2 3
      vertex -11 19.6 3
      vertex -5 19.6 3
    endloop
  endfacet
  facet normal 0 0 1
    outer loop
      vertex -11 19.6 3
      vertex -40 25.2 3
      vertex -11 5.6 3
    endloop
  endfacet
  facet normal -0 0 1
    outer loop
      vertex -40 25.2 3
      vertex -11 19.6 3
      vertex -5 25.2 3
    endloop
  endfacet
  facet normal 0 0 1
    outer loop
      vertex 40 25.2 3
      vertex 11 19.6 3
      vertex 40 0 3
    endloop
  endfacet
  facet normal -0 0 1
    outer loop
      vertex 5 25.2 3
      vertex 11 19.6 3
      vertex 40 25.2 3
    endloop
  endfacet
  facet normal 0 0 1
    outer loop
      vertex 11 19.6 3
      vertex 5 25.2 3
      vertex 5 19.6 3
    endloop
  endfacet
  facet normal -0 0 1
    outer loop
      vertex 11 5.6 3
      vertex 40 0 3
      vertex 11 19.6 3
    endloop
  endfacet
  facet normal -0 0 1
    outer loop
      vertex -11 5.6 3
      vertex 40 0 3
      vertex 11 5.6 3
    endloop
  endfacet
  facet normal 0 0 1
    outer loop
      vertex -11 5.6 3
      vertex -40 0 3
      vertex 40 0 3
    endloop
  endfacet
  facet normal 0 0 1
    outer loop
      vertex -40 0 3
      vertex -11 5.6 3
      vertex -40 25.2 3
    endloop
  endfacet
  facet normal 0 0 -1
    outer loop
      vertex 40 -4 0
      vertex 11 5.6 0
      vertex 40 29.2 0
    endloop
  endfacet
  facet normal 0 0 -1
    outer loop
      vertex 40 -4 0
      vertex -11 5.6 0
      vertex 11 5.6 0
    endloop
  endfacet
  facet normal -0 0 -1
    outer loop
      vertex -11 5.6 0
      vertex -40 -4 0
      vertex -11 19.6 0
    endloop
  endfacet
  facet normal 0 0 -1
    outer loop
      vertex -40 -4 0
      vertex -11 5.6 0
      vertex 40 -4 0
    endloop
  endfacet
  facet normal 0 0 -1
    outer loop
      vertex 11 19.6 0
      vertex 40 29.2 0
      vertex 11 5.6 0
    endloop
  endfacet
  facet normal 0 0 -1
    outer loop
      vertex 5 29.2 0
      vertex 11 19.6 0
      vertex 5 19.6 0
    endloop
  endfacet
  facet normal 0 0 -1
    outer loop
      vertex 11 19.6 0
      vertex 5 29.2 0
      vertex 40 29.2 0
    endloop
  endfacet
  facet normal 0 0 -1
    outer loop
      vertex -11 19.6 0
      vertex -5 29.2 0
      vertex -5 19.6 0
    endloop
  endfacet
  facet normal 0 0 -1
    outer loop
      vertex -40 29.2 0
      vertex -11 19.6 0
      vertex -40 -4 0
    endloop
  endfacet
  facet normal 0 0 -1
    outer loop
      vertex -11 19.6 0
      vertex -40 29.2 0
      vertex -5 29.2 0
    endloop
  endfacet
  facet normal -1 0 0
    outer loop
      vertex -40 29.2 0
      vertex -40 25.2 3
      vertex -40 29.2 10
    endloop
  endfacet
  facet normal -1 0 0
    outer loop
      vertex -40 29.2 0
      vertex -40 0 3
      vertex -40 25.2 3
    endloop
  endfacet
  facet normal -1 0 0
    outer loop
      vertex -40 -4 0
      vertex -40 0 3
      vertex -40 29.2 0
    endloop
  endfacet
  facet normal -1 0 0
    outer loop
      vertex -40 -4 10
      vertex -40 0 3
      vertex -40 -4 0
    endloop
  endfacet
  facet normal -1 0 0
    outer loop
      vertex -40 0 3
      vertex -40 -4 10
      vertex -40 0 10
    endloop
  endfacet
  facet normal -1 -0 0
    outer loop
      vertex -40 29.2 10
      vertex -40 25.2 3
      vertex -40 25.2 10
    endloop
  endfacet
  facet normal 0 1 -0
    outer loop
      vertex -5 29.2 0
      vertex -40 29.2 10
      vertex -5 29.2 10
    endloop
  endfacet
  facet normal 0 1 0
    outer loop
      vertex -40 29.2 10
      vertex -5 29.2 0
      vertex -40 29.2 0
    endloop
  endfacet
  facet normal 0 1 -0
    outer loop
      vertex 40 29.2 0
      vertex 5 29.2 10
      vertex 40 29.2 10
    endloop
  endfacet
  facet normal 0 1 0
    outer loop
      vertex 5 29.2 10
      vertex 40 29.2 0
      vertex 5 29.2 0
    endloop
  endfacet
  facet normal 0 -1 0
    outer loop
      vertex -40 -4 0
      vertex 40 -4 10
      vertex -40 -4 10
    endloop
  endfacet
  facet normal 0 -1 -0
    outer loop
      vertex 40 -4 10
      vertex -40 -4 0
      vertex 40 -4 0
    endloop
  endfacet
  facet normal -0 0 1
    outer loop
      vertex -40 0 10
      vertex 40 -4 10
      vertex 40 0 10
    endloop
  endfacet
  facet normal 0 0 1
    outer loop
      vertex 40 -4 10
      vertex -40 0 10
      vertex -40 -4 10
    endloop
  endfacet
  facet normal 0 1 -0
    outer loop
      vertex 40 0 3
      vertex -40 0 10
      vertex 40 0 10
    endloop
  endfacet
  facet normal 0 1 0
    outer loop
      vertex -40 0 10
      vertex 40 0 3
      vertex -40 0 3
    endloop
  endfacet
  facet normal -0 0 1
    outer loop
      vertex -40 29.2 10
      vertex -5 25.2 10
      vertex -5 29.2 10
    endloop
  endfacet
  facet normal 0 0 1
    outer loop
      vertex -5 25.2 10
      vertex -40 29.2 10
      vertex -40 25.2 10
    endloop
  endfacet
  facet normal -0 0 1
    outer loop
      vertex 5 29.2 10
      vertex 40 25.2 10
      vertex 40 29.2 10
    endloop
  endfacet
  facet normal 0 0 1
    outer loop
      vertex 40 25.2 10
      vertex 5 29.2 10
      vertex 5 25.2 10
    endloop
  endfacet
  facet normal 0 -1 0
    outer loop
      vertex -40 25.2 3
      vertex -5 25.2 10
      vertex -40 25.2 10
    endloop
  endfacet
  facet normal 0 -1 -0
    outer loop
      vertex -5 25.2 10
      vertex -40 25.2 3
      vertex -5 25.2 3
    endloop
  endfacet
  facet normal 0 -1 0
    outer loop
      vertex 5 25.2 3
      vertex 40 25.2 10
      vertex 5 25.2 10
    endloop
  endfacet
  facet normal 0 -1 -0
    outer loop
      vertex 40 25.2 10
      vertex 5 25.2 3
      vertex 40 25.2 3
    endloop
  endfacet
  facet normal -1 0 0
    outer loop
      vertex 11 5.6 0
      vertex 11 19.6 3
      vertex 11 19.6 0
    endloop
  endfacet
  facet normal -1 -0 0
    outer loop
      vertex 11 19.6 3
      vertex 11 5.6 0
      vertex 11 5.6 3
    endloop
  endfacet
  facet normal 1 -0 0
    outer loop
      vertex -11 5.6 3
      vertex -11 19.6 0
      vertex -11 19.6 3
    endloop
  endfacet
  facet normal 1 0 0
    outer loop
      vertex -11 19.6 0
      vertex -11 5.6 3
      vertex -11 5.6 0
    endloop
  endfacet
  facet normal 0 -1 0
    outer loop
      vertex -11 19.6 0
      vertex -5 19.6 3
      vertex -11 19.6 3
    endloop
  endfacet
  facet normal 0 -1 -0
    outer loop
      vertex -5 19.6 3
      vertex -11 19.6 0
      vertex -5 19.6 0
    endloop
  endfacet
  facet normal 0 -1 0
    outer loop
      vertex 5 19.6 0
      vertex 11 19.6 3
      vertex 5 19.6 3
    endloop
  endfacet
  facet normal 0 -1 -0
    outer loop
      vertex 11 19.6 3
      vertex 5 19.6 0
      vertex 11 19.6 0
    endloop
  endfacet
  facet normal 0 1 -0
    outer loop
      vertex 11 5.6 0
      vertex -11 5.6 3
      vertex 11 5.6 3
    endloop
  endfacet
  facet normal 0 1 0
    outer loop
      vertex -11 5.6 3
      vertex 11 5.6 0
      vertex -11 5.6 0
    endloop
  endfacet
  facet normal -1 0 0
    outer loop
      vertex 5 29.2 0
      vertex 5 25.2 3
      vertex 5 29.2 10
    endloop
  endfacet
  facet normal -1 0 0
    outer loop
      vertex 5 19.6 0
      vertex 5 25.2 3
      vertex 5 29.2 0
    endloop
  endfacet
  facet normal -1 -0 0
    outer loop
      vertex 5 25.2 3
      vertex 5 19.6 0
      vertex 5 19.6 3
    endloop
  endfacet
  facet normal -1 -0 0
    outer loop
      vertex 5 29.2 10
      vertex 5 25.2 3
      vertex 5 25.2 10
    endloop
  endfacet
  facet normal 1 0 0
    outer loop
      vertex -5 25.2 3
      vertex -5 29.2 10
      vertex -5 25.2 10
    endloop
  endfacet
  facet normal 1 0 0
    outer loop
      vertex -5 29.2 10
      vertex -5 25.2 3
      vertex -5 29.2 0
    endloop
  endfacet
  facet normal 1 0 0
    outer loop
      vertex -5 19.6 0
      vertex -5 25.2 3
      vertex -5 19.6 3
    endloop
  endfacet
  facet normal 1 0 0
    outer loop
      vertex -5 25.2 3
      vertex -5 19.6 0
      vertex -5 29.2 0
    endloop
  endfacet
endsolid OpenSCAD_Model
